<?xml version="1.0" encoding="utf-8"?>
<!-- Generator: Adobe Illustrator 19.0.0, SVG Export Plug-In . SVG Version: 6.00 Build 0)  -->
<svg version="1.1" xmlns="http://www.w3.org/2000/svg" xmlns:xlink="http://www.w3.org/1999/xlink" x="0px" y="0px"
	 viewBox="0 0 1200 700" style="enable-background:new 0 0 1200 700;" xml:space="preserve">
<style type="text/css">
	.st0{fill:#CDCDCD;}
	.st1{fill:#FFFFFF;}
	.st2{font-family:'FZLTXHK--GBK1-0';}
	.st3{font-size:5.1741px;}
	.st4{fill:#87CEFF;}
	.st5{fill:#2083BA;}
	.st6{fill:#FF8181;}
	.st7{fill:#C63030;}
	.st8{fill:#DBDBDB;}
	.st9{font-size:5.2732px;}
	.st10{fill:#FFAD1D;}
	.st11{font-size:5.2673px;}
	.st12{fill:#A86700;}
</style>
<g id="XMLID_25_">
	<rect id="XMLID_15_" x="710.8" y="163" class="st0" width="57" height="58.2"/>
	<text id="XMLID_24_" transform="matrix(0.8717 0 0 1 730.235 193.6507)" class="st1 st2 st3">韵苑食堂</text>
</g>
<g id="XMLID_230_">
	<rect id="XMLID_232_" x="1003.3" y="163" class="st0" width="57" height="58.2"/>
	<text id="XMLID_231_" transform="matrix(0.8717 0 0 1 1026.9454 192.1194)" class="st1 st2 st3">爱广</text>
</g>
<g id="XMLID_14_">
	<rect id="XMLID_16_" x="710.3" y="128.7" class="st4" width="57" height="19.2"/>
	<g id="XMLID_17_">
		<rect id="XMLID_21_" x="715" y="132.3" class="st1" width="8.9" height="0.9"/>
		<rect id="XMLID_20_" x="715" y="134.2" class="st1" width="8.9" height="0.9"/>
		<polygon id="XMLID_19_" class="st1" points="725.3,143.3 720.4,144.2 719,135.2 723.9,134.2 		"/>
		<polygon id="XMLID_18_" class="st1" points="713.6,143.3 718.4,144.2 719.8,135.2 715,134.2 		"/>
	</g>
	<text id="XMLID_22_" transform="matrix(0.8717 0 0 1 755.4669 136.8704)" class="st1 st2 st3">6栋</text>
	<text id="XMLID_26_" transform="matrix(0.8717 0 0 1 740.9098 143.5271)" class="st5 st2 st3">103</text>
	<text id="XMLID_23_" transform="matrix(0.8717 0 0 1 749.6906 143.5271)" class="st1 st2 st3">条表白</text>
</g>
<g id="XMLID_27_">
	<rect id="XMLID_35_" x="710.9" y="91.9" class="st4" width="57" height="19.2"/>
	<g id="XMLID_30_">
		<rect id="XMLID_34_" x="715.6" y="95.6" class="st1" width="8.9" height="0.9"/>
		<rect id="XMLID_33_" x="715.6" y="97.4" class="st1" width="8.9" height="0.9"/>
		<polygon id="XMLID_32_" class="st1" points="725.9,106.5 721,107.5 719.6,98.4 724.5,97.4 		"/>
		<polygon id="XMLID_31_" class="st1" points="714.2,106.5 719,107.5 720.4,98.4 715.6,97.4 		"/>
	</g>
	<text id="XMLID_29_" transform="matrix(0.8717 0 0 1 755.8966 100.1385)" class="st1 st2 st3">8栋</text>
	<text id="XMLID_28_" transform="matrix(0.8717 0 0 1 741.5153 106.7952)" class="st5 st2 st3">103</text>
	<text id="XMLID_36_" transform="matrix(0.8717 0 0 1 750.296 106.7952)" class="st1 st2 st3">条表白</text>
</g>
<g id="XMLID_48_">
	<rect id="XMLID_57_" x="784.3" y="91.9" class="st4" width="57" height="19.2"/>
	<g id="XMLID_52_">
		<rect id="XMLID_56_" x="789" y="95.6" class="st1" width="8.9" height="0.9"/>
		<rect id="XMLID_55_" x="789" y="97.4" class="st1" width="8.9" height="0.9"/>
		<polygon id="XMLID_54_" class="st1" points="799.3,106.5 794.4,107.5 793,98.4 797.9,97.4 		"/>
		<polygon id="XMLID_53_" class="st1" points="787.6,106.5 792.5,107.5 793.9,98.4 789,97.4 		"/>
	</g>
	<text id="XMLID_51_" transform="matrix(0.8717 0 0 1 829.3278 100.1385)" class="st1 st2 st3">9栋</text>
	<text id="XMLID_50_" transform="matrix(0.8717 0 0 1 814.9459 106.7952)" class="st5 st2 st3">103</text>
	<text id="XMLID_49_" transform="matrix(0.8717 0 0 1 823.7272 106.7952)" class="st1 st2 st3">条表白</text>
</g>
<g id="XMLID_124_">
	<rect id="XMLID_133_" x="846.9" y="91.9" class="st4" width="57" height="19.2"/>
	<g id="XMLID_128_">
		<rect id="XMLID_132_" x="851.6" y="95.6" class="st1" width="8.9" height="0.9"/>
		<rect id="XMLID_131_" x="851.6" y="97.4" class="st1" width="8.9" height="0.9"/>
		<polygon id="XMLID_130_" class="st1" points="861.9,106.5 857,107.5 855.6,98.4 860.5,97.4 		"/>
		<polygon id="XMLID_129_" class="st1" points="850.2,106.5 855,107.5 856.4,98.4 851.6,97.4 		"/>
	</g>
	<text id="XMLID_127_" transform="matrix(0.8717 0 0 1 890.131 100.1385)" class="st1 st2 st3">21栋</text>
	<text id="XMLID_126_" transform="matrix(0.8717 0 0 1 877.5226 106.7952)" class="st5 st2 st3">103</text>
	<text id="XMLID_125_" transform="matrix(0.8717 0 0 1 886.3033 106.7952)" class="st1 st2 st3">条表白</text>
</g>
<g id="XMLID_58_">
	<rect id="XMLID_67_" x="783.7" y="128.7" class="st4" width="57" height="19.2"/>
	<g id="XMLID_62_">
		<rect id="XMLID_66_" x="788.4" y="132.3" class="st1" width="8.9" height="0.9"/>
		<rect id="XMLID_65_" x="788.4" y="134.2" class="st1" width="8.9" height="0.9"/>
		<polygon id="XMLID_64_" class="st1" points="798.7,143.3 793.8,144.2 792.4,135.2 797.3,134.2 		"/>
		<polygon id="XMLID_63_" class="st1" points="787,143.3 791.9,144.2 793.3,135.2 788.4,134.2 		"/>
	</g>
	<text id="XMLID_61_" transform="matrix(0.8717 0 0 1 828.8981 136.8704)" class="st1 st2 st3">7栋</text>
	<text id="XMLID_60_" transform="matrix(0.8717 0 0 1 814.3405 143.5271)" class="st5 st2 st3">103</text>
	<text id="XMLID_59_" transform="matrix(0.8717 0 0 1 823.1217 143.5271)" class="st1 st2 st3">条表白</text>
</g>
<g id="XMLID_158_">
	<rect id="XMLID_167_" x="846.8" y="163" class="st4" width="57" height="19.2"/>
	<g id="XMLID_162_">
		<rect id="XMLID_166_" x="851.5" y="166.7" class="st1" width="8.9" height="0.9"/>
		<rect id="XMLID_165_" x="851.5" y="168.5" class="st1" width="8.9" height="0.9"/>
		<polygon id="XMLID_164_" class="st1" points="861.8,177.6 856.9,178.6 855.5,169.5 860.4,168.5 		"/>
		<polygon id="XMLID_163_" class="st1" points="850,177.6 854.9,178.6 856.3,169.5 851.4,168.5 		"/>
	</g>
	<text id="XMLID_161_" transform="matrix(0.8717 0 0 1 890.0055 171.2014)" class="st1 st2 st3">16栋</text>
	<text id="XMLID_160_" transform="matrix(0.8717 0 0 1 877.3981 177.8582)" class="st5 st2 st3">103</text>
	<text id="XMLID_159_" transform="matrix(0.8717 0 0 1 886.1808 177.8582)" class="st1 st2 st3">条表白</text>
</g>
<g id="XMLID_168_">
	<rect id="XMLID_177_" x="846.5" y="202" class="st4" width="57" height="19.2"/>
	<g id="XMLID_172_">
		<rect id="XMLID_176_" x="851.2" y="205.7" class="st1" width="8.9" height="0.9"/>
		<rect id="XMLID_175_" x="851.2" y="207.5" class="st1" width="8.9" height="0.9"/>
		<polygon id="XMLID_174_" class="st1" points="861.5,216.6 856.6,217.6 855.2,208.5 860.1,207.5 		"/>
		<polygon id="XMLID_173_" class="st1" points="849.8,216.6 854.7,217.6 856.1,208.5 851.2,207.5 		"/>
	</g>
	<text id="XMLID_171_" transform="matrix(0.8717 0 0 1 889.9381 210.1902)" class="st1 st2 st3">13栋</text>
	<text id="XMLID_170_" transform="matrix(0.8717 0 0 1 877.1525 216.8484)" class="st5 st2 st3">103</text>
	<text id="XMLID_169_" transform="matrix(0.8717 0 0 1 885.9347 216.8484)" class="st1 st2 st3">条表白</text>
</g>
<g id="XMLID_245_">
	<rect id="XMLID_254_" x="783.7" y="317" class="st4" width="57" height="19.2"/>
	<g id="XMLID_249_">
		<rect id="XMLID_253_" x="788.4" y="320.7" class="st1" width="8.9" height="0.9"/>
		<rect id="XMLID_252_" x="788.4" y="322.5" class="st1" width="8.9" height="0.9"/>
		<polygon id="XMLID_251_" class="st1" points="798.7,331.6 793.8,332.6 792.4,323.5 797.3,322.5 		"/>
		<polygon id="XMLID_250_" class="st1" points="787,331.6 791.9,332.6 793.3,323.5 788.4,322.5 		"/>
	</g>
	<text id="XMLID_248_" transform="matrix(0.8717 0 0 1 829.0763 325.1863)" class="st1 st2 st3">3栋</text>
	<text id="XMLID_247_" transform="matrix(0.8717 0 0 1 814.3405 331.8435)" class="st5 st2 st3">103</text>
	<text id="XMLID_246_" transform="matrix(0.8717 0 0 1 823.1217 331.8435)" class="st1 st2 st3">条表白</text>
</g>
<g id="XMLID_220_">
	<rect id="XMLID_229_" x="937.8" y="202" class="st4" width="57" height="19.2"/>
	<g id="XMLID_224_">
		<rect id="XMLID_228_" x="942.5" y="205.7" class="st1" width="8.9" height="0.9"/>
		<rect id="XMLID_227_" x="942.5" y="207.5" class="st1" width="8.9" height="0.9"/>
		<polygon id="XMLID_226_" class="st1" points="952.8,216.6 947.9,217.6 946.5,208.5 951.4,207.5 		"/>
		<polygon id="XMLID_225_" class="st1" points="941.1,216.6 946,217.6 947.4,208.5 942.5,207.5 		"/>
	</g>
	<text id="XMLID_223_" transform="matrix(0.8717 0 0 1 980.5148 210.1902)" class="st1 st2 st3">14栋</text>
	<text id="XMLID_222_" transform="matrix(0.8717 0 0 1 968.4415 216.8484)" class="st5 st2 st3">103</text>
	<text id="XMLID_221_" transform="matrix(0.8717 0 0 1 977.2228 216.8484)" class="st1 st2 st3">条表白</text>
</g>
<g id="XMLID_277_">
	<rect id="XMLID_286_" x="1069" y="163.1" class="st4" width="57" height="19.2"/>
	<g id="XMLID_281_">
		<rect id="XMLID_285_" x="1073.6" y="166.7" class="st1" width="8.9" height="0.9"/>
		<rect id="XMLID_284_" x="1073.6" y="168.6" class="st1" width="8.9" height="0.9"/>
		<polygon id="XMLID_283_" class="st1" points="1083.9,177.7 1079.1,178.6 1077.7,169.5 1082.5,168.6 		"/>
		<polygon id="XMLID_282_" class="st1" points="1072.2,177.7 1077.1,178.6 1078.5,169.5 1073.6,168.6 		"/>
	</g>
	<text id="XMLID_280_" transform="matrix(0.8717 0 0 1 1111.8175 171.2698)" class="st1 st2 st3">18栋</text>
	<text id="XMLID_279_" transform="matrix(0.8717 0 0 1 1099.5646 177.9265)" class="st5 st2 st3">103</text>
	<text id="XMLID_278_" transform="matrix(0.8717 0 0 1 1108.3468 177.9265)" class="st1 st2 st3">条表白</text>
</g>
<g id="XMLID_287_">
	<rect id="XMLID_296_" x="1069" y="202.9" class="st4" width="57" height="19.2"/>
	<g id="XMLID_291_">
		<rect id="XMLID_295_" x="1073.6" y="206.6" class="st1" width="8.9" height="0.9"/>
		<rect id="XMLID_294_" x="1073.6" y="208.4" class="st1" width="8.9" height="0.9"/>
		<polygon id="XMLID_293_" class="st1" points="1083.9,217.5 1079.1,218.5 1077.7,209.4 1082.5,208.4 		"/>
		<polygon id="XMLID_292_" class="st1" points="1072.2,217.5 1077.1,218.5 1078.5,209.4 1073.6,208.4 		"/>
	</g>
	<text id="XMLID_290_" transform="matrix(0.8717 0 0 1 1111.9982 211.1013)" class="st1 st2 st3">15栋</text>
	<text id="XMLID_289_" transform="matrix(0.8717 0 0 1 1099.5646 217.7566)" class="st5 st2 st3">103</text>
	<text id="XMLID_288_" transform="matrix(0.8717 0 0 1 1108.3468 217.7566)" class="st1 st2 st3">条表白</text>
</g>
<g id="XMLID_297_">
	<rect id="XMLID_306_" x="1134" y="163.1" class="st4" width="57" height="19.2"/>
	<g id="XMLID_301_">
		<rect id="XMLID_305_" x="1138.7" y="166.7" class="st1" width="8.9" height="0.9"/>
		<rect id="XMLID_304_" x="1138.7" y="168.6" class="st1" width="8.9" height="0.9"/>
		<polygon id="XMLID_303_" class="st1" points="1149,177.7 1144.1,178.6 1142.7,169.5 1147.6,168.6 		"/>
		<polygon id="XMLID_302_" class="st1" points="1137.2,177.7 1142.1,178.6 1143.5,169.5 1138.6,168.6 		"/>
	</g>
	<text id="XMLID_300_" transform="matrix(0.8717 0 0 1 1177.0236 171.2698)" class="st1 st2 st3">19栋</text>
	<text id="XMLID_299_" transform="matrix(0.8717 0 0 1 1164.5919 177.9265)" class="st5 st2 st3">103</text>
	<text id="XMLID_298_" transform="matrix(0.8717 0 0 1 1173.3732 177.9265)" class="st1 st2 st3">条表白</text>
</g>
<g id="XMLID_188_">
	<rect id="XMLID_197_" x="934.8" y="32.6" class="st4" width="57" height="19.2"/>
	<g id="XMLID_192_">
		<rect id="XMLID_196_" x="939.5" y="36.2" class="st1" width="8.9" height="0.9"/>
		<rect id="XMLID_195_" x="939.5" y="38" class="st1" width="8.9" height="0.9"/>
		<polygon id="XMLID_194_" class="st1" points="949.8,47.1 944.9,48.1 943.5,39 948.4,38 		"/>
		<polygon id="XMLID_193_" class="st1" points="938.1,47.1 942.9,48.1 944.3,39 939.5,38 		"/>
	</g>
	<text id="XMLID_191_" transform="matrix(0.8717 0 0 1 977.3331 40.7547)" class="st1 st2 st3">23栋</text>
	<text id="XMLID_190_" transform="matrix(0.8717 0 0 1 965.4337 47.4114)" class="st5 st2 st3">103</text>
	<text id="XMLID_189_" transform="matrix(0.8717 0 0 1 974.2159 47.4114)" class="st1 st2 st3">条表白</text>
</g>
<g id="XMLID_546_">
	<rect id="XMLID_207_" x="950.1" y="58.6" class="st0" width="57" height="19.2"/>
	<text id="XMLID_199_" transform="matrix(0.8717 0 0 1 970.5167 70.2561)" class="st1 st2 st3">韵二超市</text>
</g>
<g id="XMLID_37_">
	<rect id="XMLID_77_" x="784.3" y="56.6" class="st6" width="57" height="19.2"/>
	<text id="XMLID_71_" transform="matrix(0.8717 0 0 1 827.3761 64.7893)" class="st1 st2 st3">10栋</text>
	<text id="XMLID_70_" transform="matrix(0.8717 0 0 1 814.9459 71.448)" class="st7 st2 st3">103</text>
	<text id="XMLID_69_" transform="matrix(0.8717 0 0 1 823.7272 71.448)" class="st1 st2 st3">条表白</text>
	<g id="XMLID_68_">
		<ellipse id="XMLID_78_" class="st1" cx="789.5" cy="65.8" rx="2.1" ry="2.4"/>
		<ellipse id="XMLID_76_" class="st1" cx="794.5" cy="65.8" rx="2.1" ry="2.4"/>
		<path id="XMLID_75_" class="st1" d="M795.1,65.9l-2.3-5.5c-0.3-0.8-1.4-0.8-1.7,0l-2.3,5.5V65l2.3-5.5c0.3-0.8,1.4-0.8,1.7,0
			l2.4,5.5V65.9z"/>
		<rect id="XMLID_74_" x="791" y="65.5" class="st1" width="1.8" height="0.8"/>
		<rect id="XMLID_73_" x="788.8" y="70.3" class="st1" width="6.7" height="0.7"/>
		<polygon id="XMLID_72_" class="st1" points="792.9,73 791,73 789.9,71 794,71 		"/>
	</g>
</g>
<g id="XMLID_80_">
	<rect id="XMLID_91_" x="846.9" y="56.6" class="st6" width="57" height="19.2"/>
	<text id="XMLID_90_" transform="matrix(0.8717 0 0 1 891.1954 64.7893)" class="st1 st2 st3">11栋</text>
	<text id="XMLID_89_" transform="matrix(0.8717 0 0 1 877.5226 71.448)" class="st7 st2 st3">103</text>
	<text id="XMLID_88_" transform="matrix(0.8717 0 0 1 886.3033 71.448)" class="st1 st2 st3">条表白</text>
	<g id="XMLID_81_">
		<ellipse id="XMLID_87_" class="st1" cx="852.1" cy="65.8" rx="2.1" ry="2.4"/>
		<ellipse id="XMLID_86_" class="st1" cx="857.1" cy="65.8" rx="2.1" ry="2.4"/>
		<path id="XMLID_85_" class="st1" d="M857.7,65.9l-2.3-5.5c-0.3-0.8-1.4-0.8-1.7,0l-2.3,5.5V65l2.3-5.5c0.3-0.8,1.4-0.8,1.7,0
			l2.4,5.5V65.9z"/>
		<rect id="XMLID_84_" x="853.6" y="65.5" class="st1" width="1.8" height="0.8"/>
		<rect id="XMLID_83_" x="851.3" y="70.3" class="st1" width="6.7" height="0.7"/>
		<polygon id="XMLID_82_" class="st1" points="855.4,73 853.5,73 852.4,71 856.5,71 		"/>
	</g>
</g>
<g id="XMLID_134_">
	<rect id="XMLID_145_" x="846.3" y="128.7" class="st6" width="57" height="19.2"/>
	<text id="XMLID_144_" transform="matrix(0.8717 0 0 1 888.9913 136.8704)" class="st1 st2 st3">20栋</text>
	<text id="XMLID_143_" transform="matrix(0.8717 0 0 1 876.9171 143.5271)" class="st7 st2 st3">103</text>
	<text id="XMLID_142_" transform="matrix(0.8717 0 0 1 885.6979 143.5271)" class="st1 st2 st3">条表白</text>
	<g id="XMLID_135_">
		<ellipse id="XMLID_141_" class="st1" cx="851.5" cy="137.9" rx="2.1" ry="2.4"/>
		<ellipse id="XMLID_140_" class="st1" cx="856.4" cy="137.9" rx="2.1" ry="2.4"/>
		<path id="XMLID_139_" class="st1" d="M857.1,138l-2.3-5.5c-0.3-0.8-1.4-0.8-1.7,0l-2.3,5.5v-0.9l2.3-5.5c0.3-0.8,1.4-0.8,1.7,0
			l2.4,5.5V138z"/>
		<rect id="XMLID_138_" x="853" y="137.5" class="st1" width="1.8" height="0.8"/>
		<rect id="XMLID_137_" x="850.7" y="142.3" class="st1" width="6.7" height="0.7"/>
		<polygon id="XMLID_136_" class="st1" points="854.8,145.1 852.9,145.1 851.8,143 855.9,143 		"/>
	</g>
</g>
<g id="XMLID_208_">
	<rect id="XMLID_219_" x="938.1" y="163" class="st6" width="57" height="19.2"/>
	<text id="XMLID_218_" transform="matrix(0.8717 0 0 1 981.1193 171.2014)" class="st1 st2 st3">17栋</text>
	<text id="XMLID_217_" transform="matrix(0.8717 0 0 1 968.6886 177.8582)" class="st7 st2 st3">103</text>
	<text id="XMLID_216_" transform="matrix(0.8717 0 0 1 977.4679 177.8582)" class="st1 st2 st3">条表白</text>
	<g id="XMLID_209_">
		<ellipse id="XMLID_215_" class="st1" cx="943.2" cy="172.3" rx="2.1" ry="2.4"/>
		<ellipse id="XMLID_214_" class="st1" cx="948.2" cy="172.3" rx="2.1" ry="2.4"/>
		<path id="XMLID_213_" class="st1" d="M948.9,172.3l-2.3-5.5c-0.3-0.8-1.4-0.8-1.7,0l-2.3,5.5v-0.9l2.3-5.5c0.3-0.8,1.4-0.8,1.7,0
			l2.4,5.5V172.3z"/>
		<rect id="XMLID_212_" x="944.8" y="171.9" class="st1" width="1.8" height="0.8"/>
		<rect id="XMLID_211_" x="942.5" y="176.7" class="st1" width="6.7" height="0.7"/>
		<polygon id="XMLID_210_" class="st1" points="946.6,179.4 944.7,179.4 943.6,177.4 947.7,177.4 		"/>
	</g>
</g>
<g id="XMLID_146_">
	<rect id="XMLID_157_" x="784.2" y="163" class="st6" width="57" height="58.2"/>
	<text id="XMLID_156_" transform="matrix(0.8717 0 0 1 829.8605 189.1311)" class="st1 st2 st3">6栋</text>
	<text id="XMLID_155_" transform="matrix(0.8717 0 0 1 814.9459 195.7879)" class="st7 st2 st3">103</text>
	<text id="XMLID_154_" transform="matrix(0.8717 0 0 1 823.7272 195.7879)" class="st1 st2 st3">条表白</text>
	<g id="XMLID_147_">
		<ellipse id="XMLID_153_" class="st1" cx="789.8" cy="192" rx="2.1" ry="2.4"/>
		<ellipse id="XMLID_152_" class="st1" cx="794.7" cy="192" rx="2.1" ry="2.4"/>
		<path id="XMLID_151_" class="st1" d="M795.4,192l-2.3-5.5c-0.3-0.8-1.4-0.8-1.7,0L789,192v-0.9l2.3-5.5c0.3-0.8,1.4-0.8,1.7,0
			l2.4,5.5V192z"/>
		<rect id="XMLID_150_" x="791.3" y="191.6" class="st1" width="1.8" height="0.8"/>
		<rect id="XMLID_149_" x="789" y="196.4" class="st1" width="6.7" height="0.7"/>
		<polygon id="XMLID_148_" class="st1" points="793.1,199.2 791.2,199.2 790.1,197.1 794.2,197.1 		"/>
	</g>
</g>
<g id="XMLID_233_">
	<rect id="XMLID_244_" x="783.7" y="291.2" class="st6" width="57" height="19.2"/>
	<text id="XMLID_243_" transform="matrix(0.8717 0 0 1 829.0763 299.3719)" class="st1 st2 st3">4栋</text>
	<text id="XMLID_242_" transform="matrix(0.8717 0 0 1 814.3405 306.0301)" class="st7 st2 st3">103</text>
	<text id="XMLID_241_" transform="matrix(0.8717 0 0 1 823.1217 306.0301)" class="st1 st2 st3">条表白</text>
	<g id="XMLID_234_">
		<ellipse id="XMLID_240_" class="st1" cx="788.9" cy="300.4" rx="2.1" ry="2.4"/>
		<ellipse id="XMLID_239_" class="st1" cx="793.9" cy="300.4" rx="2.1" ry="2.4"/>
		<path id="XMLID_238_" class="st1" d="M794.5,300.5l-2.3-5.5c-0.3-0.8-1.4-0.8-1.7,0l-2.3,5.5v-0.9l2.3-5.5c0.3-0.8,1.4-0.8,1.7,0
			l2.4,5.5V300.5z"/>
		<rect id="XMLID_237_" x="790.4" y="300" class="st1" width="1.8" height="0.8"/>
		<rect id="XMLID_236_" x="788.2" y="304.8" class="st1" width="6.7" height="0.7"/>
		<polygon id="XMLID_235_" class="st1" points="792.3,307.6 790.3,307.6 789.2,305.5 793.4,305.5 		"/>
	</g>
</g>
<g id="XMLID_267_">
	<rect id="XMLID_276_" x="783.7" y="368.6" class="st4" width="57" height="19.2"/>
	<g id="XMLID_271_">
		<rect id="XMLID_275_" x="788.4" y="372.3" class="st1" width="8.9" height="0.9"/>
		<rect id="XMLID_274_" x="788.4" y="374.1" class="st1" width="8.9" height="0.9"/>
		<polygon id="XMLID_273_" class="st1" points="798.7,383.2 793.8,384.2 792.4,375.1 797.3,374.1 		"/>
		<polygon id="XMLID_272_" class="st1" points="787,383.2 791.9,384.2 793.3,375.1 788.4,374.1 		"/>
	</g>
	<text id="XMLID_270_" transform="matrix(0.8717 0 0 1 829.6075 376.8133)" class="st1 st2 st3">1栋</text>
	<text id="XMLID_269_" transform="matrix(0.8717 0 0 1 814.3405 383.4715)" class="st5 st2 st3">103</text>
	<text id="XMLID_268_" transform="matrix(0.8717 0 0 1 823.1217 383.4715)" class="st1 st2 st3">条表白</text>
</g>
<g id="XMLID_255_">
	<rect id="XMLID_266_" x="783.7" y="342.8" class="st6" width="57" height="19.2"/>
	<text id="XMLID_265_" transform="matrix(0.8717 0 0 1 829.2526 351.0008)" class="st1 st2 st3">2栋</text>
	<text id="XMLID_264_" transform="matrix(0.8717 0 0 1 814.3405 357.657)" class="st7 st2 st3">103</text>
	<text id="XMLID_263_" transform="matrix(0.8717 0 0 1 823.1217 357.657)" class="st1 st2 st3">条表白</text>
	<g id="XMLID_256_">
		<ellipse id="XMLID_262_" class="st1" cx="788.9" cy="352.1" rx="2.1" ry="2.4"/>
		<ellipse id="XMLID_261_" class="st1" cx="793.9" cy="352.1" rx="2.1" ry="2.4"/>
		<path id="XMLID_260_" class="st1" d="M794.5,352.1l-2.3-5.5c-0.3-0.8-1.4-0.8-1.7,0l-2.3,5.5v-0.9l2.3-5.5c0.3-0.8,1.4-0.8,1.7,0
			l2.4,5.5V352.1z"/>
		<rect id="XMLID_259_" x="790.4" y="351.7" class="st1" width="1.8" height="0.8"/>
		<rect id="XMLID_258_" x="788.2" y="356.5" class="st1" width="6.7" height="0.7"/>
		<polygon id="XMLID_257_" class="st1" points="792.3,359.2 790.3,359.2 789.2,357.2 793.4,357.2 		"/>
	</g>
</g>
<g id="XMLID_92_">
	<rect id="XMLID_103_" x="846.9" y="30.5" class="st6" width="57" height="19.2"/>
	<text id="XMLID_102_" transform="matrix(0.8717 0 0 1 889.775 38.7215)" class="st1 st2 st3">24栋</text>
	<text id="XMLID_101_" transform="matrix(0.8717 0 0 1 877.5226 45.3787)" class="st7 st2 st3">103</text>
	<text id="XMLID_100_" transform="matrix(0.8717 0 0 1 886.3033 45.3787)" class="st1 st2 st3">条表白</text>
	<g id="XMLID_93_">
		<ellipse id="XMLID_99_" class="st1" cx="852.1" cy="39.8" rx="2.1" ry="2.4"/>
		<ellipse id="XMLID_98_" class="st1" cx="857.1" cy="39.8" rx="2.1" ry="2.4"/>
		<path id="XMLID_97_" class="st1" d="M857.7,39.8l-2.3-5.5c-0.3-0.8-1.4-0.8-1.7,0l-2.3,5.5v-0.9l2.3-5.5c0.3-0.8,1.4-0.8,1.7,0
			l2.4,5.5V39.8z"/>
		<rect id="XMLID_96_" x="853.6" y="39.4" class="st1" width="1.8" height="0.8"/>
		<rect id="XMLID_95_" x="851.3" y="44.2" class="st1" width="6.7" height="0.7"/>
		<polygon id="XMLID_94_" class="st1" points="855.4,47 853.5,47 852.4,44.9 856.5,44.9 		"/>
	</g>
</g>
<g id="XMLID_198_">
	<rect id="XMLID_318_" x="773.3" y="46.5" class="st8" width="6.5" height="182.8"/>
	<rect id="XMLID_321_" x="925.2" y="110.1" class="st8" width="6.5" height="119.2"/>
	<polygon id="XMLID_323_" class="st8" points="928.8,109.2 1005.7,163 1003.3,163 1003.3,169.3 925,114.5 	"/>
	
		<rect id="XMLID_322_" x="870.8" y="61" transform="matrix(-0.2067 -0.9784 0.9784 -0.2067 1045.7393 976.3376)" class="st8" width="95.8" height="6.5"/>
	<rect id="XMLID_320_" x="831.7" y="16.5" class="st8" width="6.5" height="36.5"/>
	<rect id="XMLID_319_" x="759" y="229.2" class="st8" width="6.5" height="170.7"/>
	<rect id="XMLID_308_" x="699.9" y="152.2" class="st8" width="229.6" height="6.5"/>
	<rect id="XMLID_311_" x="699.9" y="226.1" class="st8" width="500" height="6.5"/>
	<rect id="XMLID_309_" x="779.7" y="117.4" class="st8" width="149.7" height="6.5"/>
	<rect id="XMLID_310_" x="779.7" y="81.1" class="st8" width="141.5" height="6.5"/>
	<rect id="XMLID_316_" x="764.2" y="278.2" class="st8" width="97.7" height="6.5"/>
	<rect id="XMLID_314_" x="928.6" y="188.9" class="st8" width="74.7" height="6.5"/>
	<rect id="XMLID_315_" x="1060.3" y="188.9" class="st8" width="139.5" height="6.5"/>
	<rect id="XMLID_312_" x="779.7" y="46.5" class="st8" width="58.5" height="6.5"/>
	<rect id="XMLID_313_" x="831.7" y="16.5" class="st8" width="80.3" height="6.5"/>
</g>
<g id="XMLID_751_">
	<rect id="XMLID_753_" x="543.3" y="470.6" class="st0" width="58.1" height="59.3"/>
	<text id="XMLID_752_" transform="matrix(0.8717 0 0 1 563.1703 501.7899)" class="st1 st2 st9">东一食堂</text>
</g>
<g id="XMLID_840_">
	<rect id="XMLID_849_" x="395.5" y="610.3" class="st4" width="58.1" height="19.6"/>
	<g id="XMLID_844_">
		<rect id="XMLID_848_" x="400.3" y="614.1" class="st1" width="9" height="0.9"/>
		<rect id="XMLID_847_" x="400.3" y="615.9" class="st1" width="9" height="0.9"/>
		<polygon id="XMLID_846_" class="st1" points="410.8,625.2 405.8,626.2 404.4,616.9 409.4,615.9 		"/>
		<polygon id="XMLID_845_" class="st1" points="398.8,625.2 403.8,626.2 405.2,616.9 400.3,615.9 		"/>
	</g>
	<text id="XMLID_843_" transform="matrix(0.8717 0 0 1 437.2178 618.6864)" class="st1 st2 st9">南2舍</text>
	<text id="XMLID_842_" transform="matrix(0.8717 0 0 1 426.7191 625.4716)" class="st5 st2 st9">103</text>
	<text id="XMLID_841_" transform="matrix(0.8717 0 0 1 435.6693 625.4716)" class="st1 st2 st9">条表白</text>
</g>
<g id="XMLID_830_">
	<rect id="XMLID_839_" x="473.2" y="610.3" class="st4" width="58.1" height="19.6"/>
	<g id="XMLID_834_">
		<rect id="XMLID_838_" x="478" y="614.1" class="st1" width="9" height="0.9"/>
		<rect id="XMLID_837_" x="478" y="615.9" class="st1" width="9" height="0.9"/>
		<polygon id="XMLID_836_" class="st1" points="488.5,625.2 483.6,626.2 482.1,616.9 487.1,615.9 		"/>
		<polygon id="XMLID_835_" class="st1" points="476.6,625.2 481.5,626.2 483,616.9 478,615.9 		"/>
	</g>
	<text id="XMLID_833_" transform="matrix(0.8717 0 0 1 515.3106 618.6864)" class="st1 st2 st9">南3舍</text>
	<text id="XMLID_832_" transform="matrix(0.8717 0 0 1 504.4496 625.4716)" class="st5 st2 st9">103</text>
	<text id="XMLID_831_" transform="matrix(0.8717 0 0 1 513.3998 625.4716)" class="st1 st2 st9">条表白</text>
</g>
<g id="XMLID_549_">
	<rect id="XMLID_702_" x="543.3" y="403.2" class="st4" width="58.1" height="19.6"/>
	<g id="XMLID_697_">
		<rect id="XMLID_701_" x="548.1" y="406.9" class="st1" width="9" height="0.9"/>
		<rect id="XMLID_700_" x="548.1" y="408.8" class="st1" width="9" height="0.9"/>
		<polygon id="XMLID_699_" class="st1" points="558.6,418.1 553.6,419.1 552.2,409.8 557.2,408.8 		"/>
		<polygon id="XMLID_698_" class="st1" points="546.7,418.1 551.6,419.1 553,409.8 548.1,408.8 		"/>
	</g>
	<text id="XMLID_696_" transform="matrix(0.8717 0 0 1 584.4951 411.5517)" class="st1 st2 st9">东4舍</text>
	<text id="XMLID_695_" transform="matrix(0.8717 0 0 1 574.5391 418.3359)" class="st5 st2 st9">103</text>
	<text id="XMLID_556_" transform="matrix(0.8717 0 0 1 583.4883 418.3359)" class="st1 st2 st9">条表白</text>
</g>
<g id="XMLID_729_">
	<rect id="XMLID_738_" x="618.2" y="436.5" class="st4" width="58.1" height="19.6"/>
	<g id="XMLID_733_">
		<rect id="XMLID_737_" x="623" y="440.2" class="st1" width="9" height="0.9"/>
		<rect id="XMLID_736_" x="623" y="442.1" class="st1" width="9" height="0.9"/>
		<polygon id="XMLID_735_" class="st1" points="633.5,451.4 628.5,452.4 627.1,443.1 632.1,442.1 		"/>
		<polygon id="XMLID_734_" class="st1" points="621.6,451.4 626.5,452.4 627.9,443.1 623,442.1 		"/>
	</g>
	<text id="XMLID_732_" transform="matrix(0.8717 0 0 1 659.7562 444.8457)" class="st1 st2 st9">东8舍</text>
	<text id="XMLID_731_" transform="matrix(0.8717 0 0 1 649.4395 451.6299)" class="st5 st2 st9">103</text>
	<text id="XMLID_730_" transform="matrix(0.8717 0 0 1 658.3896 451.6299)" class="st1 st2 st9">条表白</text>
</g>
<g id="XMLID_758_">
	<rect id="XMLID_767_" x="694.2" y="470.6" class="st4" width="58.1" height="19.6"/>
	<g id="XMLID_762_">
		<rect id="XMLID_766_" x="698.9" y="474.3" class="st1" width="9" height="0.9"/>
		<rect id="XMLID_765_" x="698.9" y="476.2" class="st1" width="9" height="0.9"/>
		<polygon id="XMLID_764_" class="st1" points="709.4,485.4 704.5,486.4 703,477.2 708,476.2 		"/>
		<polygon id="XMLID_763_" class="st1" points="697.5,485.4 702.4,486.4 703.9,477.2 698.9,476.2 		"/>
	</g>
	<text id="XMLID_761_" transform="matrix(0.8717 0 0 1 735.8627 478.91)" class="st1 st2 st9">东6舍</text>
	<text id="XMLID_760_" transform="matrix(0.8717 0 0 1 725.3649 485.6952)" class="st5 st2 st9">103</text>
	<text id="XMLID_759_" transform="matrix(0.8717 0 0 1 734.3151 485.6952)" class="st1 st2 st9">条表白</text>
</g>
<g id="XMLID_790_">
	<rect id="XMLID_799_" x="694.2" y="573.4" class="st4" width="58.1" height="19.6"/>
	<g id="XMLID_794_">
		<rect id="XMLID_798_" x="698.9" y="577.2" class="st1" width="9" height="0.9"/>
		<rect id="XMLID_797_" x="698.9" y="579" class="st1" width="9" height="0.9"/>
		<polygon id="XMLID_796_" class="st1" points="709.4,588.3 704.5,589.3 703,580 708,579 		"/>
		<polygon id="XMLID_795_" class="st1" points="697.5,588.3 702.4,589.3 703.9,580 698.9,579 		"/>
	</g>
	<text id="XMLID_793_" transform="matrix(0.8717 0 0 1 733.6934 581.7764)" class="st1 st2 st9">东10舍</text>
	<text id="XMLID_792_" transform="matrix(0.8717 0 0 1 725.3649 588.5615)" class="st5 st2 st9">103</text>
	<text id="XMLID_791_" transform="matrix(0.8717 0 0 1 734.3151 588.5615)" class="st1 st2 st9">条表白</text>
</g>
<g id="XMLID_800_">
	<rect id="XMLID_809_" x="694.2" y="598.3" class="st4" width="58.1" height="19.6"/>
	<g id="XMLID_804_">
		<rect id="XMLID_808_" x="698.9" y="602" class="st1" width="9" height="0.9"/>
		<rect id="XMLID_807_" x="698.9" y="603.9" class="st1" width="9" height="0.9"/>
		<polygon id="XMLID_806_" class="st1" points="709.4,613.1 704.5,614.1 703,604.9 708,603.9 		"/>
		<polygon id="XMLID_805_" class="st1" points="697.5,613.1 702.4,614.1 703.9,604.9 698.9,603.9 		"/>
	</g>
	<text id="XMLID_803_" transform="matrix(0.8717 0 0 1 734.2363 606.6335)" class="st1 st2 st9">东11舍</text>
	<text id="XMLID_802_" transform="matrix(0.8717 0 0 1 725.3649 613.4187)" class="st5 st2 st9">103</text>
	<text id="XMLID_801_" transform="matrix(0.8717 0 0 1 734.3151 613.4187)" class="st1 st2 st9">条表白</text>
</g>
<g id="XMLID_820_">
	<rect id="XMLID_829_" x="694.2" y="624.4" class="st4" width="58.1" height="19.6"/>
	<g id="XMLID_824_">
		<rect id="XMLID_828_" x="698.9" y="628.1" class="st1" width="9" height="0.9"/>
		<rect id="XMLID_827_" x="698.9" y="630" class="st1" width="9" height="0.9"/>
		<polygon id="XMLID_826_" class="st1" points="709.4,639.3 704.5,640.3 703,631 708,630 		"/>
		<polygon id="XMLID_825_" class="st1" points="697.5,639.3 702.4,640.3 703.9,631 698.9,630 		"/>
	</g>
	<text id="XMLID_823_" transform="matrix(0.8717 0 0 1 733.5127 632.7596)" class="st1 st2 st9">东12舍</text>
	<text id="XMLID_822_" transform="matrix(0.8717 0 0 1 725.3649 639.5458)" class="st5 st2 st9">103</text>
	<text id="XMLID_821_" transform="matrix(0.8717 0 0 1 734.3151 639.5458)" class="st1 st2 st9">条表白</text>
</g>
<g id="XMLID_810_">
	<rect id="XMLID_819_" x="694.2" y="649.3" class="st4" width="58.1" height="19.6"/>
	<g id="XMLID_814_">
		<rect id="XMLID_818_" x="698.9" y="653" class="st1" width="9" height="0.9"/>
		<rect id="XMLID_817_" x="698.9" y="654.9" class="st1" width="9" height="0.9"/>
		<polygon id="XMLID_816_" class="st1" points="709.4,664.1 704.5,665.1 703,655.9 708,654.9 		"/>
		<polygon id="XMLID_815_" class="st1" points="697.5,664.1 702.4,665.1 703.9,655.9 698.9,654.9 		"/>
	</g>
	<text id="XMLID_813_" transform="matrix(0.8717 0 0 1 733.5127 657.6179)" class="st1 st2 st9">东13舍</text>
	<text id="XMLID_812_" transform="matrix(0.8717 0 0 1 725.3649 664.4041)" class="st5 st2 st9">103</text>
	<text id="XMLID_811_" transform="matrix(0.8717 0 0 1 734.3151 664.4041)" class="st1 st2 st9">条表白</text>
</g>
<g id="XMLID_768_">
	<rect id="XMLID_777_" x="694.2" y="510.3" class="st4" width="58.1" height="19.6"/>
	<g id="XMLID_772_">
		<rect id="XMLID_776_" x="698.9" y="514" class="st1" width="9" height="0.9"/>
		<rect id="XMLID_775_" x="698.9" y="515.9" class="st1" width="9" height="0.9"/>
		<polygon id="XMLID_774_" class="st1" points="709.4,525.2 704.5,526.2 703,516.9 708,515.9 		"/>
		<polygon id="XMLID_773_" class="st1" points="697.5,525.2 702.4,526.2 703.9,516.9 698.9,515.9 		"/>
	</g>
	<text id="XMLID_771_" transform="matrix(0.8717 0 0 1 736.5873 518.6484)" class="st1 st2 st9">东1舍</text>
	<text id="XMLID_770_" transform="matrix(0.8717 0 0 1 725.3649 525.4326)" class="st5 st2 st9">103</text>
	<text id="XMLID_769_" transform="matrix(0.8717 0 0 1 734.3151 525.4326)" class="st1 st2 st9">条表白</text>
</g>
<g id="XMLID_755_">
	<rect id="XMLID_757_" x="618.2" y="510.3" class="st0" width="58.1" height="19.6"/>
	<text id="XMLID_756_" transform="matrix(0.8717 0 0 1 639.0498 522.1484)" class="st1 st2 st9">东三食堂</text>
</g>
<g id="XMLID_704_">
	<rect id="XMLID_716_" x="543.3" y="436.4" class="st6" width="58.1" height="19.6"/>
	<text id="XMLID_715_" transform="matrix(0.8717 0 0 1 585.0381 444.7744)" class="st1 st2 st9">东3舍</text>
	<text id="XMLID_714_" transform="matrix(0.8717 0 0 1 574.5391 451.5595)" class="st7 st2 st9">103</text>
	<text id="XMLID_713_" transform="matrix(0.8717 0 0 1 583.4883 451.5595)" class="st1 st2 st9">条表白</text>
	<g id="XMLID_705_">
		<ellipse id="XMLID_712_" class="st1" cx="548.6" cy="445.8" rx="2.1" ry="2.5"/>
		<ellipse id="XMLID_711_" class="st1" cx="553.7" cy="445.8" rx="2.1" ry="2.5"/>
		<path id="XMLID_710_" class="st1" d="M554.4,445.9l-2.4-5.6c-0.4-0.8-1.4-0.8-1.8,0l-2.4,5.6V445l2.4-5.6c0.4-0.8,1.4-0.8,1.8,0
			l2.4,5.6V445.9z"/>
		<rect id="XMLID_709_" x="550.1" y="445.5" class="st1" width="1.8" height="0.8"/>
		<rect id="XMLID_708_" x="547.8" y="450.3" class="st1" width="6.8" height="0.7"/>
		<polygon id="XMLID_707_" class="st1" points="552,453.2 550.1,453.2 549,451.1 553.2,451.1 		"/>
	</g>
</g>
<g id="XMLID_850_">
	<rect id="XMLID_861_" x="395.5" y="573.5" class="st6" width="58.1" height="19.6"/>
	<text id="XMLID_860_" transform="matrix(0.8717 0 0 1 437.5795 581.8416)" class="st1 st2 st9">南1舍</text>
	<text id="XMLID_859_" transform="matrix(0.8717 0 0 1 426.7197 588.6267)" class="st7 st2 st9">103</text>
	<text id="XMLID_858_" transform="matrix(0.8717 0 0 1 435.6689 588.6267)" class="st1 st2 st9">条表白</text>
	<g id="XMLID_851_">
		<ellipse id="XMLID_857_" class="st1" cx="400.8" cy="582.9" rx="2.1" ry="2.5"/>
		<ellipse id="XMLID_856_" class="st1" cx="405.9" cy="582.9" rx="2.1" ry="2.5"/>
		<path id="XMLID_855_" class="st1" d="M406.5,582.9l-2.4-5.6c-0.4-0.8-1.4-0.8-1.8,0l-2.4,5.6v-0.9l2.4-5.6c0.4-0.8,1.4-0.8,1.8,0
			l2.4,5.6V582.9z"/>
		<rect id="XMLID_854_" x="402.3" y="582.5" class="st1" width="1.8" height="0.8"/>
		<rect id="XMLID_853_" x="400" y="587.4" class="st1" width="6.8" height="0.7"/>
		<polygon id="XMLID_852_" class="st1" points="404.2,590.2 402.3,590.2 401.1,588.1 405.3,588.1 		"/>
	</g>
</g>
<g id="XMLID_717_">
	<rect id="XMLID_728_" x="618.2" y="403.2" class="st6" width="58.1" height="19.6"/>
	<text id="XMLID_727_" transform="matrix(0.8717 0 0 1 659.9376 411.5507)" class="st1 st2 st9">东2舍</text>
	<text id="XMLID_726_" transform="matrix(0.8717 0 0 1 649.4395 418.3358)" class="st7 st2 st9">103</text>
	<text id="XMLID_725_" transform="matrix(0.8717 0 0 1 658.3896 418.3358)" class="st1 st2 st9">条表白</text>
	<g id="XMLID_718_">
		<ellipse id="XMLID_724_" class="st1" cx="623.5" cy="412.6" rx="2.1" ry="2.5"/>
		<ellipse id="XMLID_723_" class="st1" cx="628.6" cy="412.6" rx="2.1" ry="2.5"/>
		<path id="XMLID_722_" class="st1" d="M629.3,412.7l-2.4-5.6c-0.4-0.8-1.4-0.8-1.8,0l-2.4,5.6v-0.9l2.4-5.6c0.4-0.8,1.4-0.8,1.8,0
			l2.4,5.6V412.7z"/>
		<rect id="XMLID_721_" x="625" y="412.2" class="st1" width="1.8" height="0.8"/>
		<rect id="XMLID_720_" x="622.7" y="417.1" class="st1" width="6.8" height="0.7"/>
		<polygon id="XMLID_719_" class="st1" points="626.9,420 625,420 623.9,417.8 628.1,417.8 		"/>
	</g>
</g>
<g id="XMLID_739_">
	<rect id="XMLID_750_" x="694.2" y="436.5" class="st6" width="58.1" height="19.6"/>
	<text id="XMLID_749_" transform="matrix(0.8717 0 0 1 735.6826 444.845)" class="st1 st2 st9">东7舍</text>
	<text id="XMLID_748_" transform="matrix(0.8717 0 0 1 725.3649 451.6302)" class="st7 st2 st9">103</text>
	<text id="XMLID_747_" transform="matrix(0.8717 0 0 1 734.3151 451.6302)" class="st1 st2 st9">条表白</text>
	<g id="XMLID_740_">
		<ellipse id="XMLID_746_" class="st1" cx="699.4" cy="445.9" rx="2.1" ry="2.5"/>
		<ellipse id="XMLID_745_" class="st1" cx="704.5" cy="445.9" rx="2.1" ry="2.5"/>
		<path id="XMLID_744_" class="st1" d="M705.2,445.9l-2.4-5.6c-0.4-0.8-1.4-0.8-1.8,0l-2.4,5.6v-0.9l2.4-5.6c0.4-0.8,1.4-0.8,1.8,0
			l2.4,5.6V445.9z"/>
		<rect id="XMLID_743_" x="701" y="445.5" class="st1" width="1.8" height="0.8"/>
		<rect id="XMLID_742_" x="698.7" y="450.4" class="st1" width="6.8" height="0.7"/>
		<polygon id="XMLID_741_" class="st1" points="702.9,453.2 700.9,453.2 699.8,451.1 704,451.1 		"/>
	</g>
</g>
<g id="XMLID_778_">
	<rect id="XMLID_789_" x="694.2" y="548.1" class="st6" width="58.1" height="19.6"/>
	<text id="XMLID_788_" transform="matrix(0.8717 0 0 1 735.8627 556.4598)" class="st1 st2 st9">东9舍</text>
	<text id="XMLID_787_" transform="matrix(0.8717 0 0 1 725.3649 563.246)" class="st7 st2 st9">103</text>
	<text id="XMLID_786_" transform="matrix(0.8717 0 0 1 734.3151 563.246)" class="st1 st2 st9">条表白</text>
	<g id="XMLID_779_">
		<ellipse id="XMLID_785_" class="st1" cx="699.4" cy="557.5" rx="2.1" ry="2.5"/>
		<ellipse id="XMLID_784_" class="st1" cx="704.5" cy="557.5" rx="2.1" ry="2.5"/>
		<path id="XMLID_783_" class="st1" d="M705.2,557.6l-2.4-5.6c-0.4-0.8-1.4-0.8-1.8,0l-2.4,5.6v-0.9l2.4-5.6c0.4-0.8,1.4-0.8,1.8,0
			l2.4,5.6V557.6z"/>
		<rect id="XMLID_782_" x="701" y="557.1" class="st1" width="1.8" height="0.8"/>
		<rect id="XMLID_781_" x="698.7" y="562" class="st1" width="6.8" height="0.7"/>
		<polygon id="XMLID_780_" class="st1" points="702.9,564.9 700.9,564.9 699.8,562.7 704,562.7 		"/>
	</g>
</g>
<g id="XMLID_470_">
	<rect id="XMLID_862_" x="373.2" y="598.7" class="st8" width="165.5" height="6.6"/>
	<rect id="XMLID_870_" x="685.9" y="498.3" class="st8" width="87.4" height="6.6"/>
	<rect id="XMLID_865_" x="373.2" y="536.7" class="st8" width="400.1" height="6.6"/>
	<rect id="XMLID_866_" x="534.2" y="460.8" class="st8" width="239.1" height="6.6"/>
	<rect id="XMLID_867_" x="461.7" y="426.1" class="st8" width="311.6" height="6.6"/>
	<rect id="XMLID_863_" x="532.1" y="385.3" class="st8" width="6.6" height="153.3"/>
	<rect id="XMLID_868_" x="606.7" y="384.1" class="st8" width="6.6" height="80"/>
	<rect id="XMLID_869_" x="682.5" y="384.1" class="st8" width="6.6" height="299.1"/>
	<rect id="XMLID_864_" x="458.4" y="385.6" class="st8" width="6.6" height="263.7"/>
</g>
<g id="XMLID_482_">
	<rect id="XMLID_555_" x="469" y="403.2" class="st10" width="58.1" height="19.6"/>
	<g id="XMLID_550_">
		<rect id="XMLID_554_" x="483.3" y="407.7" class="st1" width="7.7" height="0.8"/>
		<rect id="XMLID_553_" x="483.3" y="409.3" class="st1" width="7.7" height="0.8"/>
		<polygon id="XMLID_552_" class="st1" points="492.3,417.2 488,418.1 486.8,410.2 491,409.3 		"/>
		<polygon id="XMLID_551_" class="st1" points="482.1,417.2 486.3,418.1 487.5,410.2 483.3,409.3 		"/>
	</g>
	<text id="XMLID_548_" transform="matrix(0.8717 0 0 1 510.6719 411.5517)" class="st1 st2 st9">东5舍</text>
	<text id="XMLID_547_" transform="matrix(0.8717 0 0 1 500.1739 418.3359)" class="st5 st2 st9">103</text>
	<text id="XMLID_545_" transform="matrix(0.8717 0 0 1 509.1241 418.3359)" class="st1 st2 st9">条表白</text>
	<g id="XMLID_538_">
		<circle id="XMLID_544_" class="st1" cx="473.9" cy="412.8" r="2.1"/>
		<circle id="XMLID_543_" class="st1" cx="478.9" cy="412.8" r="2.1"/>
		<path id="XMLID_542_" class="st1" d="M479.6,412.9l-2.4-4.9c-0.4-0.7-1.4-0.7-1.8,0l-2.4,4.9v-0.8l2.4-4.9c0.4-0.7,1.4-0.7,1.8,0
			l2.4,4.9V412.9z"/>
		<rect id="XMLID_541_" x="475.4" y="412.5" class="st1" width="1.8" height="0.7"/>
		<rect id="XMLID_540_" x="473.1" y="416.7" class="st1" width="6.7" height="0.6"/>
		<polygon id="XMLID_539_" class="st1" points="477.3,419.2 475.4,419.2 474.2,417.3 478.4,417.3 		"/>
	</g>
</g>
<g id="XMLID_201_">
	
		<rect id="XMLID_326_" x="10.3" y="420.7" transform="matrix(0.9843 -0.1763 0.1763 0.9843 -75.2709 13.6688)" class="st4" width="58" height="19.6"/>
	<g id="XMLID_205_">
		
			<rect id="XMLID_325_" x="14.4" y="428" transform="matrix(0.9843 -0.1763 0.1763 0.9843 -75.2318 10.0428)" class="st1" width="9" height="0.9"/>
		
			<rect id="XMLID_324_" x="14.7" y="429.8" transform="matrix(0.9843 -0.1763 0.1763 0.9843 -75.5482 10.129)" class="st1" width="9" height="0.9"/>
		<polygon id="XMLID_307_" class="st1" points="26.7,437.9 22,439.7 18.9,430.9 23.6,429 		"/>
		<polygon id="XMLID_206_" class="st1" points="14.9,440 20,440.1 19.7,430.7 14.7,430.6 		"/>
	</g>
	<text id="XMLID_204_" transform="matrix(0.8581 -0.1537 0.1763 0.9843 53.6422 426.4282)" class="st1 st2 st11">13栋</text>
	<text id="XMLID_203_" transform="matrix(0.8581 -0.1537 0.1763 0.9843 42.3815 435.331)" class="st5 st2 st11">103</text>
	<text id="XMLID_202_" transform="matrix(0.8581 -0.1537 0.1763 0.9843 51.181 433.7551)" class="st1 st2 st11">条表白</text>
</g>
<g id="XMLID_327_">
	
		<rect id="XMLID_336_" x="15.3" y="463.2" transform="matrix(0.9979 -6.482561e-002 6.482561e-002 0.9979 -30.5701 3.8651)" class="st4" width="58" height="19.6"/>
	<g id="XMLID_331_">
		
			<rect id="XMLID_335_" x="19.7" y="468.2" transform="matrix(0.9979 -6.482561e-002 6.482561e-002 0.9979 -30.3331 2.5575)" class="st1" width="9" height="0.9"/>
		
			<rect id="XMLID_334_" x="19.8" y="470.1" transform="matrix(0.9979 -6.482561e-002 6.482561e-002 0.9979 -30.4527 2.5692)" class="st1" width="9" height="0.9"/>
		<polygon id="XMLID_333_" class="st1" points="30.9,478.9 26,480.3 24,471.1 28.9,469.8 		"/>
		<polygon id="XMLID_332_" class="st1" points="19,479.7 24,480.4 24.8,471.1 19.8,470.4 		"/>
	</g>
	<text id="XMLID_330_" transform="matrix(0.8699 -5.651470e-002 6.482977e-002 0.9979 59.1684 470.6018)" class="st1 st2 st11">12栋</text>
	<text id="XMLID_329_" transform="matrix(0.8699 -5.651470e-002 6.482977e-002 0.9979 46.8 478.1852)" class="st5 st2 st11">103</text>
	<text id="XMLID_328_" transform="matrix(0.8699 -5.651470e-002 6.482977e-002 0.9979 55.7212 477.6057)" class="st1 st2 st11">条表白</text>
</g>
<g id="XMLID_349_">
	
		<rect id="XMLID_358_" x="88.4" y="459.2" transform="matrix(0.9979 -6.482561e-002 6.482561e-002 0.9979 -30.1528 8.5985)" class="st4" width="58" height="19.6"/>
	<g id="XMLID_353_">
		
			<rect id="XMLID_357_" x="92.9" y="464.2" transform="matrix(0.9979 -6.482561e-002 6.482561e-002 0.9979 -29.9158 7.2909)" class="st1" width="9" height="0.9"/>
		
			<rect id="XMLID_356_" x="93" y="466" transform="matrix(0.9979 -6.482561e-002 6.482561e-002 0.9979 -30.0354 7.3026)" class="st1" width="9" height="0.9"/>
		<polygon id="XMLID_355_" class="st1" points="104,474.9 99.2,476.2 97.1,467.1 102,465.7 		"/>
		<polygon id="XMLID_354_" class="st1" points="92.1,475.7 97.1,476.3 98,467 93,466.3 		"/>
	</g>
	<text id="XMLID_352_" transform="matrix(0.8699 -5.651470e-002 6.482977e-002 0.9979 134.4853 466.5376)" class="st1 st2 st11">8栋</text>
	<text id="XMLID_351_" transform="matrix(0.8699 -5.651470e-002 6.482977e-002 0.9979 119.9492 474.12)" class="st5 st2 st11">103</text>
	<text id="XMLID_350_" transform="matrix(0.8699 -5.651470e-002 6.482977e-002 0.9979 128.8703 473.5404)" class="st1 st2 st11">条表白</text>
</g>
<g id="XMLID_413_">
	
		<rect id="XMLID_422_" x="161.4" y="412.4" transform="matrix(1 -5.806998e-003 5.806998e-003 1 -2.4482 1.113)" class="st4" width="58" height="19.6"/>
	<g id="XMLID_417_">
		
			<rect id="XMLID_421_" x="166.2" y="416.2" transform="matrix(1 -5.806998e-003 5.806998e-003 1 -2.4167 0.9983)" class="st1" width="9" height="0.9"/>
		
			<rect id="XMLID_420_" x="166.2" y="418.1" transform="matrix(1 -5.806998e-003 5.806998e-003 1 -2.4275 0.9984)" class="st1" width="9" height="0.9"/>
		<polygon id="XMLID_419_" class="st1" points="176.7,427.3 171.8,428.3 170.3,419.1 175.2,418 		"/>
		<polygon id="XMLID_418_" class="st1" points="164.8,427.4 169.8,428.3 171.1,419.1 166.2,418.1 		"/>
	</g>
	<text id="XMLID_416_" transform="matrix(0.8717 -5.064826e-003 5.810019e-003 1 207.425 420.6086)" class="st1 st2 st11">5栋</text>
	<text id="XMLID_415_" transform="matrix(0.8717 -5.064826e-003 5.810019e-003 1 192.6452 427.4592)" class="st5 st2 st11">103</text>
	<text id="XMLID_414_" transform="matrix(0.8717 -5.064826e-003 5.810019e-003 1 201.5845 427.4073)" class="st1 st2 st11">条表白</text>
</g>
<g id="XMLID_423_">
	
		<rect id="XMLID_432_" x="86.4" y="379.3" transform="matrix(1 -5.806998e-003 5.806998e-003 1 -2.2574 0.6768)" class="st4" width="58" height="19.6"/>
	<g id="XMLID_427_">
		
			<rect id="XMLID_431_" x="91.2" y="383.1" transform="matrix(1 -5.806998e-003 5.806998e-003 1 -2.2259 0.5621)" class="st1" width="9" height="0.9"/>
		
			<rect id="XMLID_430_" x="91.2" y="385" transform="matrix(1 -5.806998e-003 5.806998e-003 1 -2.2367 0.5622)" class="st1" width="9" height="0.9"/>
		<polygon id="XMLID_429_" class="st1" points="101.7,394.2 96.8,395.2 95.3,386 100.2,385 		"/>
		<polygon id="XMLID_428_" class="st1" points="89.8,394.3 94.7,395.2 96.1,386 91.2,385 		"/>
	</g>
	<text id="XMLID_426_" transform="matrix(0.8717 -5.064826e-003 5.810019e-003 1 130.605 387.5289)" class="st1 st2 st11">10栋</text>
	<text id="XMLID_425_" transform="matrix(0.8717 -5.064826e-003 5.810019e-003 1 117.63 394.3798)" class="st5 st2 st11">103</text>
	<text id="XMLID_424_" transform="matrix(0.8717 -5.064826e-003 5.810019e-003 1 126.5697 394.3279)" class="st1 st2 st11">条表白</text>
</g>
<g id="XMLID_433_">
	
		<rect id="XMLID_442_" x="161.4" y="379.3" transform="matrix(1 -5.806998e-003 5.806998e-003 1 -2.2561 1.1124)" class="st4" width="58" height="19.6"/>
	<g id="XMLID_437_">
		
			<rect id="XMLID_441_" x="166.2" y="383.1" transform="matrix(1 -5.806998e-003 5.806998e-003 1 -2.2246 0.9977)" class="st1" width="9" height="0.9"/>
		
			<rect id="XMLID_440_" x="166.2" y="385" transform="matrix(1 -5.806998e-003 5.806998e-003 1 -2.2354 0.9978)" class="st1" width="9" height="0.9"/>
		<polygon id="XMLID_439_" class="st1" points="176.7,394.2 171.8,395.2 170.3,386 175.2,385 		"/>
		<polygon id="XMLID_438_" class="st1" points="164.8,394.3 169.8,395.2 171.1,386 166.2,385 		"/>
	</g>
	<text id="XMLID_436_" transform="matrix(0.8717 -5.064826e-003 5.810019e-003 1 207.4252 387.5289)" class="st1 st2 st11">6栋</text>
	<text id="XMLID_435_" transform="matrix(0.8717 -5.064826e-003 5.810019e-003 1 192.6449 394.3805)" class="st5 st2 st11">103</text>
	<text id="XMLID_434_" transform="matrix(0.8717 -5.064826e-003 5.810019e-003 1 201.5842 394.3286)" class="st1 st2 st11">条表白</text>
</g>
<g id="XMLID_371_">
	
		<rect id="XMLID_380_" x="90.9" y="490.4" transform="matrix(0.9979 -6.482561e-002 6.482561e-002 0.9979 -32.1706 8.8271)" class="st4" width="58" height="19.6"/>
	<g id="XMLID_375_">
		
			<rect id="XMLID_379_" x="95.4" y="495.4" transform="matrix(0.9979 -6.482561e-002 6.482561e-002 0.9979 -31.9336 7.5195)" class="st1" width="9" height="0.9"/>
		
			<rect id="XMLID_378_" x="95.5" y="497.2" transform="matrix(0.9979 -6.482561e-002 6.482561e-002 0.9979 -32.0532 7.5312)" class="st1" width="9" height="0.9"/>
		<polygon id="XMLID_377_" class="st1" points="106.5,506.1 101.7,507.4 99.6,498.3 104.5,496.9 		"/>
		<polygon id="XMLID_376_" class="st1" points="94.6,506.9 99.7,507.5 100.5,498.2 95.5,497.5 		"/>
	</g>
	<text id="XMLID_374_" transform="matrix(0.8699 -5.651470e-002 6.482977e-002 0.9979 136.8186 497.746)" class="st1 st2 st11">7栋</text>
	<text id="XMLID_373_" transform="matrix(0.8699 -5.651470e-002 6.482977e-002 0.9979 122.4636 505.3293)" class="st5 st2 st11">103</text>
	<text id="XMLID_372_" transform="matrix(0.8699 -5.651470e-002 6.482977e-002 0.9979 131.3848 504.7497)" class="st1 st2 st11">条表白</text>
</g>
<g id="XMLID_381_">
	
		<rect id="XMLID_390_" x="164.4" y="484.8" transform="matrix(0.9979 -6.482561e-002 6.482561e-002 0.9979 -31.6562 13.5772)" class="st4" width="58" height="19.6"/>
	<g id="XMLID_385_">
		
			<rect id="XMLID_389_" x="168.8" y="489.8" transform="matrix(0.9979 -6.482561e-002 6.482561e-002 0.9979 -31.4192 12.2696)" class="st1" width="9" height="0.9"/>
		
			<rect id="XMLID_388_" x="169" y="491.7" transform="matrix(0.9979 -6.482561e-002 6.482561e-002 0.9979 -31.5388 12.2813)" class="st1" width="9" height="0.9"/>
		<polygon id="XMLID_387_" class="st1" points="180,500.5 175.1,501.9 173.1,492.7 178,491.4 		"/>
		<polygon id="XMLID_386_" class="st1" points="168.1,501.3 173.1,502 173.9,492.7 168.9,492 		"/>
	</g>
	<text id="XMLID_384_" transform="matrix(0.8699 -5.651470e-002 6.482977e-002 0.9979 210.2733 492.194)" class="st1 st2 st11">3栋</text>
	<text id="XMLID_383_" transform="matrix(0.8699 -5.651470e-002 6.482977e-002 0.9979 195.9183 499.7762)" class="st5 st2 st11">103</text>
	<text id="XMLID_382_" transform="matrix(0.8699 -5.651470e-002 6.482977e-002 0.9979 204.8394 499.1967)" class="st1 st2 st11">条表白</text>
</g>
<g id="XMLID_391_">
	
		<rect id="XMLID_400_" x="240.4" y="479.8" transform="matrix(0.9979 -6.482561e-002 6.482561e-002 0.9979 -31.1684 18.4946)" class="st4" width="58" height="19.6"/>
	<g id="XMLID_395_">
		
			<rect id="XMLID_399_" x="244.9" y="484.8" transform="matrix(0.9979 -6.482561e-002 6.482561e-002 0.9979 -30.9313 17.187)" class="st1" width="9" height="0.9"/>
		
			<rect id="XMLID_398_" x="245" y="486.6" transform="matrix(0.9979 -6.482561e-002 6.482561e-002 0.9979 -31.051 17.1986)" class="st1" width="9" height="0.9"/>
		<polygon id="XMLID_397_" class="st1" points="256,495.5 251.1,496.8 249.1,487.7 254,486.3 		"/>
		<polygon id="XMLID_396_" class="st1" points="244.1,496.3 249.1,496.9 250,487.6 244.9,486.9 		"/>
	</g>
	<text id="XMLID_394_" transform="matrix(0.8699 -5.651470e-002 6.482977e-002 0.9979 286.8349 487.1358)" class="st1 st2 st11">1栋</text>
	<text id="XMLID_393_" transform="matrix(0.8699 -5.651470e-002 6.482977e-002 0.9979 271.9378 494.7191)" class="st5 st2 st11">103</text>
	<text id="XMLID_392_" transform="matrix(0.8699 -5.651470e-002 6.482977e-002 0.9979 280.8589 494.1395)" class="st1 st2 st11">条表白</text>
</g>
<g id="XMLID_472_">
	
		<rect id="XMLID_481_" x="343" y="300.4" transform="matrix(0.9979 -6.482561e-002 6.482561e-002 0.9979 -19.329 24.7655)" class="st4" width="58" height="19.6"/>
	<g id="XMLID_476_">
		
			<rect id="XMLID_480_" x="347.4" y="305.5" transform="matrix(0.9979 -6.482561e-002 6.482561e-002 0.9979 -19.0919 23.4579)" class="st1" width="9" height="0.9"/>
		
			<rect id="XMLID_479_" x="347.5" y="307.3" transform="matrix(0.9979 -6.482561e-002 6.482561e-002 0.9979 -19.2116 23.4695)" class="st1" width="9" height="0.9"/>
		<polygon id="XMLID_478_" class="st1" points="358.6,316.2 353.7,317.5 351.7,308.3 356.6,307 		"/>
		<polygon id="XMLID_477_" class="st1" points="346.7,316.9 351.7,317.6 352.5,308.3 347.5,307.6 		"/>
	</g>
	<text id="XMLID_475_" transform="matrix(0.8699 -5.651470e-002 6.482977e-002 0.9979 384.3307 307.8286)" class="st1 st2 st11">西6舍</text>
	<text id="XMLID_474_" transform="matrix(0.8699 -5.651470e-002 6.482977e-002 0.9979 374.4904 315.4113)" class="st5 st2 st11">103</text>
	<text id="XMLID_473_" transform="matrix(0.8699 -5.651470e-002 6.482977e-002 0.9979 383.4116 314.8317)" class="st1 st2 st11">条表白</text>
</g>
<g id="XMLID_492_">
	
		<rect id="XMLID_501_" x="336.7" y="226.3" transform="matrix(0.9979 -6.482561e-002 6.482561e-002 0.9979 -14.5336 24.2047)" class="st4" width="58" height="19.6"/>
	<g id="XMLID_496_">
		
			<rect id="XMLID_500_" x="341.2" y="231.3" transform="matrix(0.9979 -6.482561e-002 6.482561e-002 0.9979 -14.2966 22.897)" class="st1" width="9" height="0.9"/>
		
			<rect id="XMLID_499_" x="341.3" y="233.1" transform="matrix(0.9979 -6.482561e-002 6.482561e-002 0.9979 -14.4162 22.9087)" class="st1" width="9" height="0.9"/>
		<polygon id="XMLID_498_" class="st1" points="352.3,242 347.5,243.3 345.4,234.2 350.3,232.9 		"/>
		<polygon id="XMLID_497_" class="st1" points="340.4,242.8 345.4,243.4 346.3,234.1 341.3,233.4 		"/>
	</g>
	<text id="XMLID_495_" transform="matrix(0.8699 -5.651470e-002 6.482977e-002 0.9979 378.6281 233.6526)" class="st1 st2 st11">西3舍</text>
	<text id="XMLID_494_" transform="matrix(0.8699 -5.651470e-002 6.482977e-002 0.9979 368.2467 241.2361)" class="st5 st2 st11">103</text>
	<text id="XMLID_493_" transform="matrix(0.8699 -5.651470e-002 6.482977e-002 0.9979 377.1678 240.6565)" class="st1 st2 st11">条表白</text>
</g>
<g id="XMLID_646_">
	
		<rect id="XMLID_655_" x="554.8" y="284.8" transform="matrix(0.9974 7.196535e-002 -7.196535e-002 0.9974 22.7124 -41.2475)" class="st4" width="58" height="19.6"/>
	<g id="XMLID_650_">
		
			<rect id="XMLID_654_" x="560" y="287.1" transform="matrix(0.9974 7.196535e-002 -7.196535e-002 0.9974 22.1587 -39.8799)" class="st1" width="9" height="0.9"/>
		
			<rect id="XMLID_653_" x="559.9" y="289" transform="matrix(0.9974 7.196535e-002 -7.196535e-002 0.9974 22.2914 -39.8655)" class="st1" width="9" height="0.9"/>
		<polygon id="XMLID_652_" class="st1" points="569.7,298.6 564.7,299.3 563.9,289.9 568.9,289.3 		"/>
		<polygon id="XMLID_651_" class="st1" points="557.8,297.8 562.7,299.1 564.8,290 559.9,288.6 		"/>
	</g>
	<text id="XMLID_649_" transform="matrix(0.8695 6.273893e-002 -7.196977e-002 0.9974 594.147 294.2016)" class="st1 st2 st11">西16舍</text>
	<text id="XMLID_648_" transform="matrix(0.8695 6.273893e-002 -7.196977e-002 0.9974 585.5533 300.0515)" class="st5 st2 st11">103</text>
	<text id="XMLID_647_" transform="matrix(0.8695 6.273893e-002 -7.196977e-002 0.9974 594.4695 300.6948)" class="st1 st2 st11">条表白</text>
</g>
<g id="XMLID_666_">
	
		<rect id="XMLID_675_" x="624.7" y="266" transform="matrix(0.9974 7.196535e-002 -7.196535e-002 0.9974 21.5403 -46.3279)" class="st4" width="58" height="19.6"/>
	<g id="XMLID_670_">
		
			<rect id="XMLID_674_" x="629.9" y="268.3" transform="matrix(0.9974 7.196535e-002 -7.196535e-002 0.9974 20.9866 -44.9603)" class="st1" width="9" height="0.9"/>
		
			<rect id="XMLID_673_" x="629.8" y="270.2" transform="matrix(0.9974 7.196535e-002 -7.196535e-002 0.9974 21.1193 -44.9459)" class="st1" width="9" height="0.9"/>
		<polygon id="XMLID_672_" class="st1" points="639.6,279.8 634.6,280.5 633.8,271.1 638.9,270.5 		"/>
		<polygon id="XMLID_671_" class="st1" points="627.7,279 632.6,280.3 634.7,271.2 629.8,269.8 		"/>
	</g>
	<text id="XMLID_669_" transform="matrix(0.8695 6.273893e-002 -7.196977e-002 0.9974 666.2313 275.3965)" class="st1 st2 st11">西7舍</text>
	<text id="XMLID_668_" transform="matrix(0.8695 6.273893e-002 -7.196977e-002 0.9974 655.47 281.2445)" class="st5 st2 st11">103</text>
	<text id="XMLID_667_" transform="matrix(0.8695 6.273893e-002 -7.196977e-002 0.9974 664.3873 281.888)" class="st1 st2 st11">条表白</text>
</g>
<g id="XMLID_484_">
	
		<rect id="XMLID_872_" x="563.8" y="177.3" transform="matrix(0.9974 7.196535e-002 -7.196535e-002 0.9974 14.9995 -42.1728)" class="st4" width="58" height="19.6"/>
	<g id="XMLID_488_">
		
			<rect id="XMLID_871_" x="569" y="179.6" transform="matrix(0.9974 7.196535e-002 -7.196535e-002 0.9974 14.4458 -40.8052)" class="st1" width="9" height="0.9"/>
		
			<rect id="XMLID_754_" x="568.8" y="181.5" transform="matrix(0.9974 7.196535e-002 -7.196535e-002 0.9974 14.5785 -40.7908)" class="st1" width="9" height="0.9"/>
		<polygon id="XMLID_490_" class="st1" points="578.7,191.1 573.7,191.8 572.9,182.4 577.9,181.8 		"/>
		<polygon id="XMLID_489_" class="st1" points="566.8,190.3 571.7,191.6 573.7,182.5 568.9,181.1 		"/>
	</g>
	<text id="XMLID_487_" transform="matrix(0.8695 6.273893e-002 -7.196977e-002 0.9974 605.2983 186.7025)" class="st1 st2 st11">西9舍</text>
	<text id="XMLID_486_" transform="matrix(0.8695 6.273893e-002 -7.196977e-002 0.9974 594.5378 192.5521)" class="st5 st2 st11">103</text>
	<text id="XMLID_485_" transform="matrix(0.8695 6.273893e-002 -7.196977e-002 0.9974 603.4542 193.1955)" class="st1 st2 st11">条表白</text>
</g>
<g id="XMLID_656_">
	
		<rect id="XMLID_665_" x="553.1" y="309.3" transform="matrix(0.9974 7.196535e-002 -7.196535e-002 0.9974 24.4729 -41.0604)" class="st4" width="58" height="19.6"/>
	<g id="XMLID_660_">
		
			<rect id="XMLID_664_" x="558.3" y="311.6" transform="matrix(0.9974 7.196535e-002 -7.196535e-002 0.9974 23.9193 -39.6928)" class="st1" width="9" height="0.9"/>
		
			<rect id="XMLID_663_" x="558.1" y="313.5" transform="matrix(0.9974 7.196535e-002 -7.196535e-002 0.9974 24.0519 -39.6784)" class="st1" width="9" height="0.9"/>
		<polygon id="XMLID_662_" class="st1" points="568,323.1 563,323.8 562.2,314.5 567.2,313.8 		"/>
		<polygon id="XMLID_661_" class="st1" points="556.1,322.3 561,323.6 563,314.5 558.2,313.2 		"/>
	</g>
	<text id="XMLID_659_" transform="matrix(0.8695 6.273893e-002 -7.196977e-002 0.9974 592.251 318.7275)" class="st1 st2 st11">西15舍</text>
	<text id="XMLID_658_" transform="matrix(0.8695 6.273893e-002 -7.196977e-002 0.9974 583.8375 324.5765)" class="st5 st2 st11">103</text>
	<text id="XMLID_657_" transform="matrix(0.8695 6.273893e-002 -7.196977e-002 0.9974 592.7537 325.2199)" class="st1 st2 st11">条表白</text>
</g>
<g id="XMLID_676_">
	
		<rect id="XMLID_685_" x="551.3" y="342.2" transform="matrix(0.9974 7.196535e-002 -7.196535e-002 0.9974 26.8388 -40.8474)" class="st4" width="58" height="19.6"/>
	<g id="XMLID_680_">
		
			<rect id="XMLID_684_" x="556.5" y="344.6" transform="matrix(0.9974 7.196535e-002 -7.196535e-002 0.9974 26.2852 -39.4798)" class="st1" width="9" height="0.9"/>
		
			<rect id="XMLID_683_" x="556.4" y="346.4" transform="matrix(0.9974 7.196535e-002 -7.196535e-002 0.9974 26.4178 -39.4654)" class="st1" width="9" height="0.9"/>
		<polygon id="XMLID_682_" class="st1" points="566.2,356.1 561.2,356.7 560.4,347.4 565.5,346.7 		"/>
		<polygon id="XMLID_681_" class="st1" points="554.3,355.2 559.2,356.6 561.3,347.5 556.4,346.1 		"/>
	</g>
	<text id="XMLID_679_" transform="matrix(0.8695 6.273893e-002 -7.196977e-002 0.9974 592.8233 351.6665)" class="st1 st2 st11">西5舍</text>
	<text id="XMLID_678_" transform="matrix(0.8695 6.273893e-002 -7.196977e-002 0.9974 582.0629 357.5161)" class="st5 st2 st11">103</text>
	<text id="XMLID_677_" transform="matrix(0.8695 6.273893e-002 -7.196977e-002 0.9974 590.9791 358.1595)" class="st1 st2 st11">条表白</text>
</g>
<g id="XMLID_502_">
	
		<rect id="XMLID_511_" x="411.6" y="221.2" transform="matrix(0.9979 -6.482561e-002 6.482561e-002 0.9979 -14.0483 29.0457)" class="st4" width="58" height="19.6"/>
	<g id="XMLID_506_">
		
			<rect id="XMLID_510_" x="416" y="226.2" transform="matrix(0.9979 -6.482561e-002 6.482561e-002 0.9979 -13.8113 27.7381)" class="st1" width="9" height="0.9"/>
		
			<rect id="XMLID_509_" x="416.1" y="228.1" transform="matrix(0.9979 -6.482561e-002 6.482561e-002 0.9979 -13.9309 27.7498)" class="st1" width="9" height="0.9"/>
		<polygon id="XMLID_508_" class="st1" points="427.2,236.9 422.3,238.3 420.3,229.1 425.2,227.8 		"/>
		<polygon id="XMLID_507_" class="st1" points="415.3,237.7 420.3,238.4 421.1,229.1 416.1,228.4 		"/>
	</g>
	<text id="XMLID_505_" transform="matrix(0.8699 -5.651470e-002 6.482977e-002 0.9979 453.2896 228.5937)" class="st1 st2 st11">西1舍</text>
	<text id="XMLID_504_" transform="matrix(0.8699 -5.651470e-002 6.482977e-002 0.9979 443.089 236.1781)" class="st5 st2 st11">103</text>
	<text id="XMLID_503_" transform="matrix(0.8699 -5.651470e-002 6.482977e-002 0.9979 452.0101 235.5986)" class="st1 st2 st11">条表白</text>
</g>
<g id="XMLID_512_">
	
		<rect id="XMLID_521_" x="409.7" y="191.3" transform="matrix(0.9979 -6.482561e-002 6.482561e-002 0.9979 -12.1101 28.859)" class="st4" width="58" height="19.6"/>
	<g id="XMLID_516_">
		
			<rect id="XMLID_520_" x="414.1" y="196.3" transform="matrix(0.9979 -6.482561e-002 6.482561e-002 0.9979 -11.8731 27.5514)" class="st1" width="9" height="0.9"/>
		
			<rect id="XMLID_519_" x="414.2" y="198.1" transform="matrix(0.9979 -6.482561e-002 6.482561e-002 0.9979 -11.9927 27.563)" class="st1" width="9" height="0.9"/>
		<polygon id="XMLID_518_" class="st1" points="425.3,207 420.4,208.3 418.4,199.2 423.2,197.8 		"/>
		<polygon id="XMLID_517_" class="st1" points="413.4,207.8 418.4,208.4 419.2,199.1 414.2,198.4 		"/>
	</g>
	<text id="XMLID_515_" transform="matrix(0.8699 -5.651470e-002 6.482977e-002 0.9979 451.0198 198.6339)" class="st1 st2 st11">西2舍</text>
	<text id="XMLID_514_" transform="matrix(0.8699 -5.651470e-002 6.482977e-002 0.9979 441.1802 206.2184)" class="st5 st2 st11">103</text>
	<text id="XMLID_513_" transform="matrix(0.8699 -5.651470e-002 6.482977e-002 0.9979 450.1014 205.6389)" class="st1 st2 st11">条表白</text>
</g>
<g id="XMLID_965_">
	
		<rect id="XMLID_491_" x="339.9" y="260.8" transform="matrix(0.9979 -6.482561e-002 6.482561e-002 0.9979 -17.0716 24.4924)" class="st0" width="58" height="29.1"/>
	<text id="XMLID_483_" transform="matrix(0.8699 -5.651470e-002 6.482977e-002 0.9979 360.4808 277.9222)" class="st1 st2 st11">西一食堂</text>
</g>
<g id="XMLID_337_">
	
		<rect id="XMLID_348_" x="17.8" y="495.6" transform="matrix(0.9983 -5.885403e-002 5.885403e-002 0.9983 -29.6633 3.6298)" class="st6" width="58" height="19.6"/>
	<text id="XMLID_347_" transform="matrix(0.8702 -5.130174e-002 5.884982e-002 0.9983 62.2275 503.0847)" class="st1 st2 st11">11栋</text>
	<text id="XMLID_346_" transform="matrix(0.8702 -5.130174e-002 5.884982e-002 0.9983 49.2716 510.5945)" class="st7 st2 st11">103</text>
	<text id="XMLID_345_" transform="matrix(0.8702 -5.130174e-002 5.884982e-002 0.9983 58.196 510.0684)" class="st1 st2 st11">条表白</text>
	<g id="XMLID_338_">
		
			<ellipse id="XMLID_344_" transform="matrix(0.9983 -5.885403e-002 5.885403e-002 0.9983 -29.7645 2.2348)" class="st1" cx="23.1" cy="506.4" rx="2.1" ry="2.4"/>
		
			<ellipse id="XMLID_343_" transform="matrix(0.9983 -5.885403e-002 5.885403e-002 0.9983 -29.7381 2.5329)" class="st1" cx="28.1" cy="506.1" rx="2.1" ry="2.4"/>
		<path id="XMLID_342_" class="st1" d="M28.8,506.1l-2.7-5.5c-0.4-0.8-1.5-0.8-1.8,0.1l-2.1,5.8l-0.1-0.9l2-5.8
			c0.3-0.9,1.4-0.9,1.8-0.1l2.7,5.5L28.8,506.1z"/>
		
			<rect id="XMLID_341_" x="24.6" y="505.9" transform="matrix(0.9983 -5.885403e-002 5.885403e-002 0.9983 -29.7534 2.3806)" class="st1" width="1.8" height="0.8"/>
		
			<rect id="XMLID_340_" x="22.6" y="510.7" transform="matrix(0.9983 -5.885403e-002 5.885403e-002 0.9983 -30.035 2.4155)" class="st1" width="6.8" height="0.7"/>
		<polygon id="XMLID_339_" class="st1" points="26.9,513.5 25,513.6 23.7,511.6 27.9,511.3 		"/>
	</g>
</g>
<g id="XMLID_359_">
	
		<rect id="XMLID_370_" x="161.9" y="453.8" transform="matrix(0.9983 -5.885403e-002 5.885403e-002 0.9983 -26.9532 12.0394)" class="st6" width="58" height="19.6"/>
	<text id="XMLID_369_" transform="matrix(0.8702 -5.130174e-002 5.884982e-002 0.9983 207.6127 461.2815)" class="st1 st2 st11">4栋</text>
	<text id="XMLID_368_" transform="matrix(0.8702 -5.130174e-002 5.884982e-002 0.9983 193.3933 468.7916)" class="st7 st2 st11">103</text>
	<text id="XMLID_367_" transform="matrix(0.8702 -5.130174e-002 5.884982e-002 0.9983 202.3177 468.2654)" class="st1 st2 st11">条表白</text>
	<g id="XMLID_360_">
		
			<ellipse id="XMLID_366_" transform="matrix(0.9983 -5.885403e-002 5.885403e-002 0.9983 -27.0544 10.6445)" class="st1" cx="167.2" cy="464.6" rx="2.1" ry="2.4"/>
		
			<ellipse id="XMLID_365_" transform="matrix(0.9983 -5.885403e-002 5.885403e-002 0.9983 -27.028 10.9425)" class="st1" cx="172.3" cy="464.3" rx="2.1" ry="2.4"/>
		<path id="XMLID_364_" class="st1" d="M172.9,464.3l-2.7-5.5c-0.4-0.8-1.5-0.8-1.8,0.1l-2.1,5.8l-0.1-0.9l2-5.8
			c0.3-0.9,1.4-0.9,1.8-0.1l2.7,5.5L172.9,464.3z"/>
		
			<rect id="XMLID_363_" x="168.7" y="464.1" transform="matrix(0.9983 -5.885403e-002 5.885403e-002 0.9983 -27.0433 10.7903)" class="st1" width="1.8" height="0.8"/>
		
			<rect id="XMLID_362_" x="166.7" y="468.9" transform="matrix(0.9983 -5.885403e-002 5.885403e-002 0.9983 -27.3249 10.8251)" class="st1" width="6.8" height="0.7"/>
		<polygon id="XMLID_361_" class="st1" points="171.1,471.7 169.1,471.8 167.9,469.8 172,469.5 		"/>
	</g>
</g>
<g id="XMLID_401_">
	
		<rect id="XMLID_412_" x="86.4" y="412.3" transform="matrix(1 2.322899e-003 -2.322899e-003 1 0.9809 -0.267)" class="st6" width="58" height="19.6"/>
	<text id="XMLID_411_" transform="matrix(0.8717 2.022426e-003 -2.319987e-003 1 132.4719 420.7562)" class="st1 st2 st11">9栋</text>
	<text id="XMLID_410_" transform="matrix(0.8717 2.022426e-003 -2.319987e-003 1 117.6358 427.5042)" class="st7 st2 st11">103</text>
	<text id="XMLID_409_" transform="matrix(0.8717 2.022426e-003 -2.319987e-003 1 126.5753 427.5249)" class="st1 st2 st11">条表白</text>
	<g id="XMLID_402_">
		<ellipse id="XMLID_408_" class="st1" cx="91.7" cy="421.7" rx="2.1" ry="2.4"/>
		<ellipse id="XMLID_407_" class="st1" cx="96.8" cy="421.7" rx="2.1" ry="2.4"/>
		<path id="XMLID_406_" class="st1" d="M97.4,421.7l-2.4-5.6c-0.4-0.8-1.4-0.8-1.8,0l-2.4,5.6l0-0.9l2.4-5.6c0.4-0.8,1.4-0.8,1.8,0
			l2.4,5.6L97.4,421.7z"/>
		<rect id="XMLID_405_" x="93.2" y="421.3" class="st1" width="1.8" height="0.8"/>
		
			<rect id="XMLID_404_" x="90.9" y="426.2" transform="matrix(1 2.322899e-003 -2.322899e-003 1 0.9911 -0.2179)" class="st1" width="6.8" height="0.7"/>
		<polygon id="XMLID_403_" class="st1" points="95.1,429 93.2,429 92,426.9 96.2,426.9 		"/>
	</g>
</g>
<g id="XMLID_443_">
	
		<rect id="XMLID_454_" x="239.9" y="378.9" transform="matrix(1 2.322899e-003 -2.322899e-003 1 0.9037 -0.6235)" class="st6" width="58" height="19.6"/>
	<text id="XMLID_453_" transform="matrix(0.8717 2.022426e-003 -2.319987e-003 1 286.0888 387.3459)" class="st1 st2 st11">2栋</text>
	<text id="XMLID_452_" transform="matrix(0.8717 2.022426e-003 -2.319987e-003 1 271.0721 394.0952)" class="st7 st2 st11">103</text>
	<text id="XMLID_451_" transform="matrix(0.8717 2.022426e-003 -2.319987e-003 1 280.0115 394.116)" class="st1 st2 st11">条表白</text>
	<g id="XMLID_444_">
		<ellipse id="XMLID_450_" class="st1" cx="245.1" cy="388.3" rx="2.1" ry="2.4"/>
		<ellipse id="XMLID_449_" class="st1" cx="250.2" cy="388.3" rx="2.1" ry="2.4"/>
		<path id="XMLID_448_" class="st1" d="M250.9,388.3l-2.4-5.6c-0.4-0.8-1.4-0.8-1.8,0l-2.4,5.6l0-0.9l2.4-5.6c0.4-0.8,1.4-0.8,1.8,0
			l2.4,5.6L250.9,388.3z"/>
		<rect id="XMLID_447_" x="246.7" y="387.9" class="st1" width="1.8" height="0.8"/>
		
			<rect id="XMLID_446_" x="244.4" y="392.8" transform="matrix(1 2.322899e-003 -2.322899e-003 1 0.9139 -0.5744)" class="st1" width="6.8" height="0.7"/>
		<polygon id="XMLID_445_" class="st1" points="248.5,395.6 246.6,395.6 245.5,393.5 249.7,393.5 		"/>
	</g>
</g>
<g id="XMLID_576_">
	
		<rect id="XMLID_587_" x="559.6" y="227" transform="matrix(0.9976 6.915160e-002 -6.915160e-002 0.9976 17.7835 -40.1352)" class="st6" width="58" height="19.6"/>
	<text id="XMLID_586_" transform="matrix(0.8697 6.028059e-002 -6.914974e-002 0.9976 601.3228 236.3737)" class="st1 st2 st11">西8舍</text>
	<text id="XMLID_585_" transform="matrix(0.8697 6.028059e-002 -6.914974e-002 0.9976 590.3994 242.2599)" class="st7 st2 st11">103</text>
	<text id="XMLID_584_" transform="matrix(0.8697 6.028059e-002 -6.914974e-002 0.9976 599.3174 242.8781)" class="st1 st2 st11">条表白</text>
	<g id="XMLID_577_">
		
			<ellipse id="XMLID_583_" transform="matrix(0.9976 6.915160e-002 -6.915160e-002 0.9976 17.5872 -38.5033)" class="st1" cx="564.9" cy="234.8" rx="2.1" ry="2.4"/>
		
			<ellipse id="XMLID_582_" transform="matrix(0.9976 6.915160e-002 -6.915160e-002 0.9976 17.6236 -38.8531)" class="st1" cx="570" cy="235.1" rx="2.1" ry="2.4"/>
		<path id="XMLID_581_" class="st1" d="M570.7,235.2l-2-5.8c-0.3-0.9-1.4-0.9-1.8-0.1l-2.8,5.5l0.1-0.9l2.8-5.5
			c0.4-0.8,1.5-0.7,1.8,0.1l2,5.8L570.7,235.2z"/>
		
			<rect id="XMLID_580_" x="566.5" y="234.6" transform="matrix(0.9976 6.915160e-002 -6.915160e-002 0.9976 17.6071 -38.674)" class="st1" width="1.8" height="0.8"/>
		
			<rect id="XMLID_579_" x="563.8" y="239.4" transform="matrix(0.9976 6.915160e-002 -6.915160e-002 0.9976 17.9398 -38.651)" class="st1" width="6.8" height="0.7"/>
		<polygon id="XMLID_578_" class="st1" points="567.9,242.3 565.9,242.2 564.9,240 569.1,240.3 		"/>
	</g>
</g>
<g id="XMLID_885_">
	<rect id="XMLID_455_" x="306.1" y="364.8" class="st0" width="19.2" height="34.2"/>
	<g id="XMLID_456_">
		<text id="XMLID_39_" transform="matrix(0.8717 0 0 1 313.1611 377.878)"><tspan x="0" y="0" class="st1 st2 st11">百</tspan><tspan x="0" y="6.3" class="st1 st2 st11">惠</tspan><tspan x="0" y="12.6" class="st1 st2 st11">园</tspan></text>
	</g>
</g>
<g id="XMLID_882_">
	
		<rect id="XMLID_458_" x="3.1" y="478.3" transform="matrix(0.9974 -7.233477e-002 7.233477e-002 0.9974 -34.4181 12.7882)" class="st8" width="312.4" height="6.6"/>
	
		<rect id="XMLID_460_" x="76.1" y="439.5" transform="matrix(1 -2.855826e-003 2.855826e-003 1 -1.2639 0.5994)" class="st8" width="266.2" height="6.6"/>
	
		<rect id="XMLID_471_" x="330.2" y="328.6" transform="matrix(0.9986 -5.310800e-002 5.310800e-002 0.9986 -17.0573 21.8761)" class="st8" width="145.9" height="6.6"/>
	
		<rect id="XMLID_690_" x="478.2" y="250.7" transform="matrix(0.9971 7.558176e-002 -7.558176e-002 0.9971 20.885 -43.8563)" class="st8" width="223.4" height="6.6"/>
	
		<rect id="XMLID_691_" x="470.5" y="332.5" transform="matrix(0.9971 7.558176e-002 -7.558176e-002 0.9971 27.0479 -43.0458)" class="st8" width="223.4" height="6.6"/>
	
		<rect id="XMLID_462_" x="76.4" y="403" transform="matrix(1 -2.855846e-003 2.855846e-003 1 -1.1596 0.4398)" class="st8" width="154.1" height="6.6"/>
	
		<rect id="XMLID_463_" x="225.2" y="415.2" transform="matrix(0.8567 0.5158 -0.5158 0.8567 251.7536 -69.2281)" class="st8" width="50.6" height="6.6"/>
	
		<rect id="XMLID_459_" x="1.2" y="453.4" transform="matrix(0.9974 -7.233477e-002 7.233477e-002 0.9974 -32.9322 4.1336)" class="st8" width="78.8" height="6.6"/>
	
		<rect id="XMLID_687_" x="315.6" y="247.8" transform="matrix(0.9974 -7.233477e-002 7.233477e-002 0.9974 -17.116 29.519)" class="st8" width="166.8" height="6.6"/>
	
		<rect id="XMLID_693_" x="415.9" y="282.1" transform="matrix(0.9974 -7.233477e-002 7.233477e-002 0.9974 -19.5256 31.7323)" class="st8" width="24.9" height="6.6"/>
	
		<rect id="XMLID_457_" x="48.6" y="451.9" transform="matrix(-7.768030e-002 -0.997 0.997 -7.768030e-002 -367.9287 570.097)" class="st8" width="62.3" height="6.6"/>
	
		<rect id="XMLID_466_" x="119.3" y="476.6" transform="matrix(-7.768030e-002 -0.997 0.997 -7.768030e-002 -310.1122 672.9034)" class="st8" width="73.8" height="6.6"/>
	
		<rect id="XMLID_686_" x="360.6" y="206" transform="matrix(-7.768030e-002 -0.997 0.997 -7.768030e-002 223.7541 625.5873)" class="st8" width="81.2" height="6.6"/>
	
		<rect id="XMLID_692_" x="398.6" y="264.7" transform="matrix(-7.768030e-002 -0.997 0.997 -7.768030e-002 183.041 705.4173)" class="st8" width="38.4" height="6.6"/>
	
		<rect id="XMLID_694_" x="415.5" y="302.4" transform="matrix(-7.768030e-002 -0.997 0.997 -7.768030e-002 168.2747 767.1061)" class="st8" width="46.9" height="6.6"/>
	
		<rect id="XMLID_688_" x="432.2" y="201.6" transform="matrix(-7.768030e-002 -0.997 0.997 -7.768030e-002 308.4612 695.1761)" class="st8" width="87.2" height="6.6"/>
	
		<rect id="XMLID_469_" x="272.3" y="393.4" transform="matrix(-5.295194e-002 -0.9986 0.9986 -5.295194e-002 -41.5606 754.122)" class="st8" width="129.1" height="6.6"/>
	
		<rect id="XMLID_689_" x="435.6" y="283.7" transform="matrix(8.278982e-002 -0.9966 0.9966 8.278982e-002 150.3941 737.3762)" class="st8" width="80.3" height="6.6"/>
	
		<rect id="XMLID_461_" x="67.1" y="410.5" transform="matrix(6.574657e-002 -0.9978 0.9978 6.574657e-002 -340.0234 464.5011)" class="st8" width="22" height="6.6"/>
	
		<rect id="XMLID_465_" x="136.1" y="421" transform="matrix(8.538871e-003 -1 1 8.538871e-003 -272.2771 574.0855)" class="st8" width="34.6" height="6.6"/>
	<circle id="XMLID_464_" class="st0" cx="280.8" cy="439" r="17.3"/>
	<circle id="XMLID_468_" class="st0" cx="153.5" cy="441.7" r="11.5"/>
</g>
<g id="XMLID_200_">
	
		<rect id="XMLID_531_" x="482.2" y="171.1" transform="matrix(0.997 7.705446e-002 -7.705446e-002 0.997 15.4591 -38.8516)" class="st10" width="58" height="19.6"/>
	<g id="XMLID_526_">
		
			<rect id="XMLID_530_" x="496.9" y="174.8" transform="matrix(0.997 7.705446e-002 -7.705446e-002 0.997 14.9904 -38.0662)" class="st1" width="7.7" height="0.8"/>
		
			<rect id="XMLID_529_" x="496.8" y="176.4" transform="matrix(0.997 7.705446e-002 -7.705446e-002 0.997 15.1115 -38.0521)" class="st1" width="7.7" height="0.8"/>
		<polygon id="XMLID_528_" class="st1" points="505.1,184.7 500.9,185.2 500.3,177.2 504.5,176.7 		"/>
		<polygon id="XMLID_527_" class="st1" points="495,183.9 499.2,185.1 501,177.3 496.8,176.1 		"/>
	</g>
	<text id="XMLID_525_" transform="matrix(0.8691 6.716739e-002 -7.704979e-002 0.997 522.3024 180.5967)" class="st1 st2 st11">西11舍</text>
	<text id="XMLID_524_" transform="matrix(0.8691 6.716739e-002 -7.704979e-002 0.997 512.9561 186.3786)" class="st12 st2 st11">103</text>
	<text id="XMLID_523_" transform="matrix(0.8691 6.716739e-002 -7.704979e-002 0.997 521.8689 187.0674)" class="st1 st2 st11">条表白</text>
	<g id="XMLID_522_">
		<circle id="XMLID_537_" class="st1" cx="487.2" cy="178.9" r="2.1"/>
		<circle id="XMLID_536_" class="st1" cx="492.2" cy="179.3" r="2.1"/>
		<path id="XMLID_535_" class="st1" d="M492.9,179.3l-2-5c-0.3-0.8-1.3-0.8-1.8-0.1l-2.7,4.7l0.1-0.8l2.7-4.7
			c0.4-0.7,1.5-0.6,1.8,0.1l2,5L492.9,179.3z"/>
		
			<rect id="XMLID_534_" x="488.7" y="178.7" transform="matrix(0.997 7.705446e-002 -7.705446e-002 0.997 15.2551 -37.1954)" class="st1" width="1.8" height="0.7"/>
		
			<rect id="XMLID_533_" x="486.1" y="182.9" transform="matrix(0.997 7.705446e-002 -7.705446e-002 0.997 15.5752 -37.1711)" class="st1" width="6.7" height="0.6"/>
		<polygon id="XMLID_532_" class="st1" points="490.1,185.4 488.2,185.3 487.2,183.4 491.3,183.7 		"/>
	</g>
</g>
<g id="XMLID_557_">
	
		<rect id="XMLID_575_" x="492.6" y="221.5" transform="matrix(0.997 7.705446e-002 -7.705446e-002 0.997 19.3742 -39.5002)" class="st10" width="58" height="19.6"/>
	<g id="XMLID_569_">
		
			<rect id="XMLID_574_" x="507.3" y="225.2" transform="matrix(0.997 7.705446e-002 -7.705446e-002 0.997 18.9055 -38.7148)" class="st1" width="7.7" height="0.8"/>
		
			<rect id="XMLID_573_" x="507.2" y="226.8" transform="matrix(0.997 7.705446e-002 -7.705446e-002 0.997 19.0266 -38.7007)" class="st1" width="7.7" height="0.8"/>
		<polygon id="XMLID_571_" class="st1" points="515.5,235.1 511.2,235.6 510.6,227.6 514.9,227.1 		"/>
		<polygon id="XMLID_570_" class="st1" points="505.4,234.3 509.5,235.5 511.3,227.7 507.2,226.5 		"/>
	</g>
	<text id="XMLID_568_" transform="matrix(0.8691 6.716739e-002 -7.704979e-002 0.997 531.9431 231.007)" class="st1 st2 st11">西10舍</text>
	<text id="XMLID_567_" transform="matrix(0.8691 6.716739e-002 -7.704979e-002 0.997 523.3187 236.7888)" class="st12 st2 st11">103</text>
	<text id="XMLID_566_" transform="matrix(0.8691 6.716739e-002 -7.704979e-002 0.997 532.2315 237.4776)" class="st1 st2 st11">条表白</text>
	<g id="XMLID_558_">
		<circle id="XMLID_565_" class="st1" cx="497.5" cy="229.3" r="2.1"/>
		<circle id="XMLID_563_" class="st1" cx="502.6" cy="229.7" r="2.1"/>
		<path id="XMLID_562_" class="st1" d="M503.2,229.7l-2-5c-0.3-0.8-1.3-0.8-1.8-0.1l-2.7,4.7l0.1-0.8l2.7-4.7
			c0.4-0.7,1.5-0.6,1.8,0.1l2,5L503.2,229.7z"/>
		
			<rect id="XMLID_561_" x="499.1" y="229.1" transform="matrix(0.997 7.705446e-002 -7.705446e-002 0.997 19.1702 -37.844)" class="st1" width="1.8" height="0.7"/>
		
			<rect id="XMLID_560_" x="496.5" y="233.4" transform="matrix(0.997 7.705446e-002 -7.705446e-002 0.997 19.4904 -37.8197)" class="st1" width="6.7" height="0.6"/>
		<polygon id="XMLID_559_" class="st1" points="500.5,235.8 498.5,235.7 497.6,233.8 501.7,234.1 		"/>
	</g>
</g>
<g id="XMLID_605_">
	
		<rect id="XMLID_616_" x="557" y="261.6" transform="matrix(0.9976 6.915160e-002 -6.915160e-002 0.9976 20.1708 -39.8703)" class="st6" width="58" height="19.6"/>
	<text id="XMLID_615_" transform="matrix(0.8697 6.028059e-002 -6.914974e-002 0.9976 596.5233 270.9875)" class="st1 st2 st11">西17舍</text>
	<text id="XMLID_614_" transform="matrix(0.8697 6.028059e-002 -6.914974e-002 0.9976 587.7671 276.8737)" class="st7 st2 st11">103</text>
	<text id="XMLID_613_" transform="matrix(0.8697 6.028059e-002 -6.914974e-002 0.9976 596.6851 277.4918)" class="st1 st2 st11">条表白</text>
	<g id="XMLID_606_">
		
			<ellipse id="XMLID_612_" transform="matrix(0.9976 6.915160e-002 -6.915160e-002 0.9976 19.9745 -38.2385)" class="st1" cx="562.3" cy="269.4" rx="2.1" ry="2.4"/>
		
			<ellipse id="XMLID_611_" transform="matrix(0.9976 6.915160e-002 -6.915160e-002 0.9976 20.0109 -38.5882)" class="st1" cx="567.4" cy="269.7" rx="2.1" ry="2.4"/>
		<path id="XMLID_610_" class="st1" d="M568,269.8l-2-5.8c-0.3-0.9-1.4-0.9-1.8-0.1l-2.8,5.5l0.1-0.9l2.8-5.5
			c0.4-0.8,1.5-0.7,1.8,0.1l2,5.8L568,269.8z"/>
		
			<rect id="XMLID_609_" x="563.8" y="269.2" transform="matrix(0.9976 6.915160e-002 -6.915160e-002 0.9976 19.9944 -38.4091)" class="st1" width="1.8" height="0.8"/>
		
			<rect id="XMLID_608_" x="561.2" y="274.1" transform="matrix(0.9976 6.915160e-002 -6.915160e-002 0.9976 20.3271 -38.3862)" class="st1" width="6.8" height="0.7"/>
		<polygon id="XMLID_607_" class="st1" points="565.2,276.9 563.3,276.8 562.3,274.6 566.5,274.9 		"/>
	</g>
</g>
<g id="XMLID_634_">
	
		<rect id="XMLID_645_" x="486.4" y="303.9" transform="matrix(0.9976 6.915160e-002 -6.915160e-002 0.9976 22.9266 -34.8875)" class="st6" width="58" height="19.6"/>
	<text id="XMLID_644_" transform="matrix(0.8697 6.028059e-002 -6.914974e-002 0.9976 525.7514 313.2827)" class="st1 st2 st11">西14舍</text>
	<text id="XMLID_643_" transform="matrix(0.8697 6.028059e-002 -6.914974e-002 0.9976 517.1754 319.1687)" class="st7 st2 st11">103</text>
	<text id="XMLID_642_" transform="matrix(0.8697 6.028059e-002 -6.914974e-002 0.9976 526.0934 319.7869)" class="st1 st2 st11">条表白</text>
	<g id="XMLID_635_">
		
			<ellipse id="XMLID_641_" transform="matrix(0.9976 6.915160e-002 -6.915160e-002 0.9976 22.7303 -33.2556)" class="st1" cx="491.7" cy="311.7" rx="2.1" ry="2.4"/>
		
			<ellipse id="XMLID_640_" transform="matrix(0.9976 6.915160e-002 -6.915160e-002 0.9976 22.7667 -33.6054)" class="st1" cx="496.8" cy="312" rx="2.1" ry="2.4"/>
		<path id="XMLID_639_" class="st1" d="M497.4,312.1l-2-5.8c-0.3-0.9-1.4-0.9-1.8-0.1l-2.8,5.5l0.1-0.9l2.8-5.5
			c0.4-0.8,1.5-0.7,1.8,0.1l2,5.8L497.4,312.1z"/>
		
			<rect id="XMLID_638_" x="493.2" y="311.5" transform="matrix(0.9976 6.915160e-002 -6.915160e-002 0.9976 22.7502 -33.4263)" class="st1" width="1.8" height="0.8"/>
		
			<rect id="XMLID_637_" x="490.6" y="316.3" transform="matrix(0.9976 6.915160e-002 -6.915160e-002 0.9976 23.0829 -33.4033)" class="st1" width="6.8" height="0.7"/>
		<polygon id="XMLID_636_" class="st1" points="494.6,319.2 492.7,319.1 491.7,316.9 495.9,317.2 		"/>
	</g>
</g>
<g id="XMLID_588_">
	
		<rect id="XMLID_604_" x="489.9" y="256.1" transform="matrix(0.997 7.705446e-002 -7.705446e-002 0.997 22.0336 -39.1945)" class="st10" width="58" height="19.6"/>
	<g id="XMLID_599_">
		
			<rect id="XMLID_603_" x="504.7" y="259.9" transform="matrix(0.997 7.705446e-002 -7.705446e-002 0.997 21.5648 -38.4091)" class="st1" width="7.7" height="0.8"/>
		
			<rect id="XMLID_602_" x="504.5" y="261.4" transform="matrix(0.997 7.705446e-002 -7.705446e-002 0.997 21.6859 -38.395)" class="st1" width="7.7" height="0.8"/>
		<polygon id="XMLID_601_" class="st1" points="512.9,269.7 508.6,270.2 508,262.3 512.3,261.7 		"/>
		<polygon id="XMLID_600_" class="st1" points="502.7,268.9 506.9,270.1 508.7,262.3 504.6,261.1 		"/>
	</g>
	<text id="XMLID_598_" transform="matrix(0.8691 6.716739e-002 -7.704979e-002 0.997 529.131 265.6212)" class="st1 st2 st11">西12舍</text>
	<text id="XMLID_597_" transform="matrix(0.8691 6.716739e-002 -7.704979e-002 0.997 520.6877 271.4028)" class="st12 st2 st11">103</text>
	<text id="XMLID_596_" transform="matrix(0.8691 6.716739e-002 -7.704979e-002 0.997 529.6006 272.0916)" class="st1 st2 st11">条表白</text>
	<g id="XMLID_589_">
		<circle id="XMLID_595_" class="st1" cx="494.9" cy="263.9" r="2.1"/>
		<circle id="XMLID_594_" class="st1" cx="499.9" cy="264.3" r="2.1"/>
		<path id="XMLID_593_" class="st1" d="M500.6,264.4l-2-5c-0.3-0.8-1.3-0.8-1.8-0.1l-2.7,4.7l0.1-0.8l2.7-4.7
			c0.4-0.7,1.5-0.6,1.8,0.1l2,5L500.6,264.4z"/>
		
			<rect id="XMLID_592_" x="496.4" y="263.7" transform="matrix(0.997 7.705446e-002 -7.705446e-002 0.997 21.8295 -37.5383)" class="st1" width="1.8" height="0.7"/>
		
			<rect id="XMLID_591_" x="493.8" y="268" transform="matrix(0.997 7.705446e-002 -7.705446e-002 0.997 22.1497 -37.514)" class="st1" width="6.7" height="0.6"/>
		<polygon id="XMLID_590_" class="st1" points="497.8,270.5 495.9,270.3 494.9,268.4 499.1,268.7 		"/>
	</g>
</g>
<g id="XMLID_617_">
	
		<rect id="XMLID_633_" x="488.1" y="279.7" transform="matrix(0.997 7.705446e-002 -7.705446e-002 0.997 23.8423 -38.9857)" class="st10" width="58" height="19.6"/>
	<g id="XMLID_628_">
		
			<rect id="XMLID_632_" x="502.9" y="283.4" transform="matrix(0.997 7.705446e-002 -7.705446e-002 0.997 23.3735 -38.2003)" class="st1" width="7.7" height="0.8"/>
		
			<rect id="XMLID_631_" x="502.7" y="285" transform="matrix(0.997 7.705446e-002 -7.705446e-002 0.997 23.4946 -38.1862)" class="st1" width="7.7" height="0.8"/>
		<polygon id="XMLID_630_" class="st1" points="511.1,293.2 506.8,293.8 506.2,285.8 510.5,285.3 		"/>
		<polygon id="XMLID_629_" class="st1" points="500.9,292.5 505.1,293.6 506.9,285.9 502.8,284.7 		"/>
	</g>
	<text id="XMLID_627_" transform="matrix(0.8691 6.716739e-002 -7.704979e-002 0.997 527.6887 289.1631)" class="st1 st2 st11">西13舍</text>
	<text id="XMLID_626_" transform="matrix(0.8691 6.716739e-002 -7.704979e-002 0.997 518.886 294.9454)" class="st12 st2 st11">103</text>
	<text id="XMLID_625_" transform="matrix(0.8691 6.716739e-002 -7.704979e-002 0.997 527.799 295.6342)" class="st1 st2 st11">条表白</text>
	<g id="XMLID_618_">
		<circle id="XMLID_624_" class="st1" cx="493.1" cy="287.4" r="2.1"/>
		<circle id="XMLID_623_" class="st1" cx="498.1" cy="287.8" r="2.1"/>
		<path id="XMLID_622_" class="st1" d="M498.8,287.9l-2-5c-0.3-0.8-1.3-0.8-1.8-0.1l-2.7,4.7l0.1-0.8l2.7-4.7
			c0.4-0.7,1.5-0.6,1.8,0.1l2,5L498.8,287.9z"/>
		
			<rect id="XMLID_621_" x="494.6" y="287.3" transform="matrix(0.997 7.705446e-002 -7.705446e-002 0.997 23.6382 -37.3295)" class="st1" width="1.8" height="0.7"/>
		
			<rect id="XMLID_620_" x="492" y="291.5" transform="matrix(0.997 7.705446e-002 -7.705446e-002 0.997 23.9584 -37.3052)" class="st1" width="6.7" height="0.6"/>
		<polygon id="XMLID_619_" class="st1" points="496,294 494.1,293.9 493.1,291.9 497.3,292.3 		"/>
	</g>
</g>
<g id="XMLID_467_">
	
		<rect id="XMLID_572_" x="494.2" y="197.2" transform="matrix(0.997 7.705446e-002 -7.705446e-002 0.997 17.5086 -39.6956)" class="st0" width="58" height="19.6"/>
	<text id="XMLID_564_" transform="matrix(0.8691 6.716739e-002 -7.704979e-002 0.997 515.9185 208.7299)" class="st1 st2 st11">枫林湾</text>
</g>
</svg>
