<?xml version="1.0" encoding="utf-8"?>
<!-- Generator: Adobe Illustrator 19.0.0, SVG Export Plug-In . SVG Version: 6.00 Build 0)  -->
<svg version="1.1" id="图层_1" xmlns="http://www.w3.org/2000/svg" xmlns:xlink="http://www.w3.org/1999/xlink" x="0px" y="0px"
	 viewBox="-311 210 400 350" style="enable-background:new -311 210 400 350;" xml:space="preserve">
<style type="text/css">
	.st0{fill:#CDCDCD;}
	.st1{fill:#FFFFFF;}
	.st2{font-family:'AdobeSongStd-Light-GBpc-EUC-H';}
	.st3{font-size:4.1393px;}
	.st4{fill:#87CEFF;}
	.st5{enable-background:new    ;}
	.st6{font-family:'ArialMT';}
	.st7{fill:#2083BA;}
	.st8{fill:#FF8181;}
	.st9{fill:#C63030;}
	.st10{fill:#DBDBDB;}
</style>
<g id="XMLID_25_">
	<rect id="XMLID_15_" x="-301.6" y="360.7" class="st0" width="45.6" height="46.6"/>
	<text id="XMLID_24_" transform="matrix(0.8717 0 0 1 -286.0605 385.1865)" class="st1 st2 st3">韵苑食堂</text>
</g>
<g id="XMLID_230_">
	<rect id="XMLID_232_" x="-67.6" y="360.7" class="st0" width="45.6" height="46.6"/>
	<text id="XMLID_231_" transform="matrix(0.8717 0 0 1 -48.6909 383.9614)" class="st1 st2 st3">爱广</text>
</g>
<g id="XMLID_14_">
	<rect id="XMLID_16_" x="-302" y="333.2" class="st4" width="45.6" height="15.4"/>
	<g id="XMLID_17_">
		<rect id="XMLID_21_" x="-298.3" y="336.1" class="st1" width="7.1" height="0.7"/>
		<rect id="XMLID_20_" x="-298.3" y="337.6" class="st1" width="7.1" height="0.7"/>
		<polygon id="XMLID_19_" class="st1" points="-290,344.9 -293.9,345.7 -295,338.4 -291.2,337.6 		"/>
		<polygon id="XMLID_18_" class="st1" points="-299.4,344.9 -295.5,345.7 -294.4,338.4 -298.3,337.6 		"/>
	</g>
	<text id="XMLID_22_" transform="matrix(0.8717 0 0 1 -265.8749 339.7627)" class="st5"><tspan x="0" y="0" class="st1 st6 st3">6</tspan><tspan x="2.3" y="0" class="st1 st2 st3">栋</tspan></text>
	<text id="XMLID_26_" transform="matrix(0.8717 0 0 1 -277.5215 345.0889)" class="st7 st6 st3">103</text>
	<text id="XMLID_23_" transform="matrix(0.8717 0 0 1 -270.4961 345.0889)" class="st1 st2 st3">条表白</text>
</g>
<g id="XMLID_27_">
	<rect id="XMLID_35_" x="-301.5" y="303.8" class="st4" width="45.6" height="15.4"/>
	<g id="XMLID_30_">
		<rect id="XMLID_34_" x="-297.8" y="306.8" class="st1" width="7.1" height="0.7"/>
		<rect id="XMLID_33_" x="-297.8" y="308.2" class="st1" width="7.1" height="0.7"/>
		<polygon id="XMLID_32_" class="st1" points="-289.5,315.5 -293.4,316.3 -294.6,309 -290.7,308.2 		"/>
		<polygon id="XMLID_31_" class="st1" points="-298.9,315.5 -295,316.3 -293.9,309 -297.8,308.2 		"/>
	</g>
	<text id="XMLID_29_" transform="matrix(0.8717 0 0 1 -265.5322 310.377)" class="st5"><tspan x="0" y="0" class="st1 st6 st3">8</tspan><tspan x="2.3" y="0" class="st1 st2 st3">栋</tspan></text>
	<text id="XMLID_28_" transform="matrix(0.8717 0 0 1 -277.0366 315.7031)" class="st7 st6 st3">103</text>
	<text id="XMLID_36_" transform="matrix(0.8717 0 0 1 -270.0112 315.7031)" class="st1 st2 st3">条表白</text>
</g>
<g id="XMLID_48_">
	<rect id="XMLID_57_" x="-242.8" y="303.8" class="st4" width="45.6" height="15.4"/>
	<g id="XMLID_52_">
		<rect id="XMLID_56_" x="-239" y="306.8" class="st1" width="7.1" height="0.7"/>
		<rect id="XMLID_55_" x="-239" y="308.2" class="st1" width="7.1" height="0.7"/>
		<polygon id="XMLID_54_" class="st1" points="-230.8,315.5 -234.7,316.3 -235.8,309 -231.9,308.2 		"/>
		<polygon id="XMLID_53_" class="st1" points="-240.2,315.5 -236.3,316.3 -235.2,309 -239.1,308.2 		"/>
	</g>
	<text id="XMLID_51_" transform="matrix(0.8717 0 0 1 -206.7871 310.377)" class="st5"><tspan x="0" y="0" class="st1 st6 st3">9</tspan><tspan x="2.3" y="0" class="st1 st2 st3">栋</tspan></text>
	<text id="XMLID_50_" transform="matrix(0.8717 0 0 1 -218.2915 315.7031)" class="st7 st6 st3">103</text>
	<text id="XMLID_49_" transform="matrix(0.8717 0 0 1 -211.2661 315.7031)" class="st1 st2 st3">条表白</text>
</g>
<g id="XMLID_124_">
	<rect id="XMLID_133_" x="-192.7" y="303.8" class="st4" width="45.6" height="15.4"/>
	<g id="XMLID_128_">
		<rect id="XMLID_132_" x="-189" y="306.8" class="st1" width="7.1" height="0.7"/>
		<rect id="XMLID_131_" x="-189" y="308.2" class="st1" width="7.1" height="0.7"/>
		<polygon id="XMLID_130_" class="st1" points="-180.7,315.5 -184.6,316.3 -185.8,309 -181.9,308.2 		"/>
		<polygon id="XMLID_129_" class="st1" points="-190.1,315.5 -186.2,316.3 -185.1,309 -189,308.2 		"/>
	</g>
	<text id="XMLID_127_" transform="matrix(0.8717 0 0 1 -158.1445 310.377)" class="st5"><tspan x="0" y="0" class="st1 st6 st3">21</tspan><tspan x="4.6" y="0" class="st1 st2 st3">栋</tspan></text>
	<text id="XMLID_126_" transform="matrix(0.8717 0 0 1 -168.23 315.7031)" class="st7 st6 st3">103</text>
	<text id="XMLID_125_" transform="matrix(0.8717 0 0 1 -161.2051 315.7031)" class="st1 st2 st3">条表白</text>
</g>
<g id="XMLID_58_">
	<rect id="XMLID_67_" x="-243.3" y="333.2" class="st4" width="45.6" height="15.4"/>
	<g id="XMLID_62_">
		<rect id="XMLID_66_" x="-239.5" y="336.1" class="st1" width="7.1" height="0.7"/>
		<rect id="XMLID_65_" x="-239.5" y="337.6" class="st1" width="7.1" height="0.7"/>
		<polygon id="XMLID_64_" class="st1" points="-231.3,344.9 -235.2,345.7 -236.3,338.4 -232.4,337.6 		"/>
		<polygon id="XMLID_63_" class="st1" points="-240.7,344.9 -236.8,345.7 -235.6,338.4 -239.5,337.6 		"/>
	</g>
	<text id="XMLID_61_" transform="matrix(0.8717 0 0 1 -207.1299 339.7627)" class="st5"><tspan x="0" y="0" class="st1 st6 st3">7</tspan><tspan x="2.3" y="0" class="st1 st2 st3">栋</tspan></text>
	<text id="XMLID_60_" transform="matrix(0.8717 0 0 1 -218.7763 345.0889)" class="st7 st6 st3">103</text>
	<text id="XMLID_59_" transform="matrix(0.8717 0 0 1 -211.751 345.0889)" class="st1 st2 st3">条表白</text>
</g>
<g id="XMLID_158_">
	<rect id="XMLID_167_" x="-192.8" y="360.7" class="st4" width="45.6" height="15.4"/>
	<g id="XMLID_162_">
		<rect id="XMLID_166_" x="-189.1" y="363.6" class="st1" width="7.1" height="0.7"/>
		<rect id="XMLID_165_" x="-189.1" y="365.1" class="st1" width="7.1" height="0.7"/>
		<polygon id="XMLID_164_" class="st1" points="-180.8,372.3 -184.7,373.1 -185.9,365.8 -182,365.1 		"/>
		<polygon id="XMLID_163_" class="st1" points="-190.2,372.3 -186.3,373.1 -185.2,365.8 -189.1,365.1 		"/>
	</g>
	<text id="XMLID_161_" transform="matrix(0.8717 0 0 1 -158.2442 367.2261)" class="st5"><tspan x="0" y="0" class="st1 st6 st3">16</tspan><tspan x="4.6" y="0" class="st1 st2 st3">栋</tspan></text>
	<text id="XMLID_160_" transform="matrix(0.8717 0 0 1 -168.33 372.5522)" class="st7 st6 st3">103</text>
	<text id="XMLID_159_" transform="matrix(0.8717 0 0 1 -161.3047 372.5522)" class="st1 st2 st3">条表白</text>
</g>
<g id="XMLID_168_">
	<rect id="XMLID_177_" x="-193" y="391.9" class="st4" width="45.6" height="15.4"/>
	<g id="XMLID_172_">
		<rect id="XMLID_176_" x="-189.3" y="394.8" class="st1" width="7.1" height="0.7"/>
		<rect id="XMLID_175_" x="-189.3" y="396.3" class="st1" width="7.1" height="0.7"/>
		<polygon id="XMLID_174_" class="st1" points="-181,403.5 -184.9,404.3 -186,397 -182.2,396.3 		"/>
		<polygon id="XMLID_173_" class="st1" points="-190.4,403.5 -186.5,404.3 -185.4,397 -189.3,396.3 		"/>
	</g>
	<text id="XMLID_171_" transform="matrix(0.8717 0 0 1 -158.2988 398.4189)" class="st5"><tspan x="0" y="0" class="st1 st6 st3">13</tspan><tspan x="4.6" y="0" class="st1 st2 st3">栋</tspan></text>
	<text id="XMLID_170_" transform="matrix(0.8717 0 0 1 -168.5264 403.7451)" class="st7 st6 st3">103</text>
	<text id="XMLID_169_" transform="matrix(0.8717 0 0 1 -161.501 403.7451)" class="st1 st2 st3">条表白</text>
</g>
<g id="XMLID_245_">
	<rect id="XMLID_254_" x="-243.3" y="483.9" class="st4" width="45.6" height="15.4"/>
	<g id="XMLID_249_">
		<rect id="XMLID_253_" x="-239.5" y="486.8" class="st1" width="7.1" height="0.7"/>
		<rect id="XMLID_252_" x="-239.5" y="488.3" class="st1" width="7.1" height="0.7"/>
		<polygon id="XMLID_251_" class="st1" points="-231.3,495.5 -235.2,496.3 -236.3,489 -232.4,488.3 		"/>
		<polygon id="XMLID_250_" class="st1" points="-240.7,495.5 -236.8,496.3 -235.6,489 -239.5,488.3 		"/>
	</g>
	<text id="XMLID_248_" transform="matrix(0.8717 0 0 1 -206.9873 490.415)" class="st5"><tspan x="0" y="0" class="st1 st6 st3">3</tspan><tspan x="2.3" y="0" class="st1 st2 st3">栋</tspan></text>
	<text id="XMLID_247_" transform="matrix(0.8717 0 0 1 -218.7763 495.7402)" class="st7 st6 st3">103</text>
	<text id="XMLID_246_" transform="matrix(0.8717 0 0 1 -211.751 495.7402)" class="st1 st2 st3">条表白</text>
</g>
<g id="XMLID_220_">
	<rect id="XMLID_229_" x="-120" y="391.9" class="st4" width="45.6" height="15.4"/>
	<g id="XMLID_224_">
		<rect id="XMLID_228_" x="-116.2" y="394.8" class="st1" width="7.1" height="0.7"/>
		<rect id="XMLID_227_" x="-116.2" y="396.3" class="st1" width="7.1" height="0.7"/>
		<polygon id="XMLID_226_" class="st1" points="-108,403.5 -111.9,404.3 -113,397 -109.1,396.3 		"/>
		<polygon id="XMLID_225_" class="st1" points="-117.4,403.5 -113.5,404.3 -112.4,397 -116.3,396.3 		"/>
	</g>
	<text id="XMLID_223_" transform="matrix(0.8717 0 0 1 -85.835 398.4189)" class="st5"><tspan x="0" y="0" class="st1 st6 st3">14</tspan><tspan x="4.6" y="0" class="st1 st2 st3">栋</tspan></text>
	<text id="XMLID_222_" transform="matrix(0.8717 0 0 1 -95.4952 403.7451)" class="st7 st6 st3">103</text>
	<text id="XMLID_221_" transform="matrix(0.8717 0 0 1 -88.4697 403.7451)" class="st1 st2 st3">条表白</text>
</g>
<g id="XMLID_277_">
	<rect id="XMLID_286_" x="-15.1" y="360.7" class="st4" width="45.6" height="15.4"/>
	<g id="XMLID_281_">
		<rect id="XMLID_285_" x="-11.3" y="363.7" class="st1" width="7.1" height="0.7"/>
		<rect id="XMLID_284_" x="-11.3" y="365.1" class="st1" width="7.1" height="0.7"/>
		<polygon id="XMLID_283_" class="st1" points="-3.1,372.4 -7,373.2 -8.1,365.9 -4.2,365.1 		"/>
		<polygon id="XMLID_282_" class="st1" points="-12.5,372.4 -8.6,373.2 -7.5,365.9 -11.4,365.1 		"/>
	</g>
	<text id="XMLID_280_" transform="matrix(0.8717 0 0 1 19.207 367.2817)" class="st5"><tspan x="0" y="0" class="st1 st6 st3">18</tspan><tspan x="4.6" y="0" class="st1 st2 st3">栋</tspan></text>
	<text id="XMLID_279_" transform="matrix(0.8717 0 0 1 9.4048 372.6074)" class="st7 st6 st3">103</text>
	<text id="XMLID_278_" transform="matrix(0.8717 0 0 1 16.4301 372.6074)" class="st1 st2 st3">条表白</text>
</g>
<g id="XMLID_287_">
	<rect id="XMLID_296_" x="-15.1" y="392.6" class="st4" width="45.6" height="15.4"/>
	<g id="XMLID_291_">
		<rect id="XMLID_295_" x="-11.3" y="395.5" class="st1" width="7.1" height="0.7"/>
		<rect id="XMLID_294_" x="-11.3" y="397" class="st1" width="7.1" height="0.7"/>
		<polygon id="XMLID_293_" class="st1" points="-3.1,404.3 -7,405 -8.1,397.8 -4.2,397 		"/>
		<polygon id="XMLID_292_" class="st1" points="-12.5,404.3 -8.6,405 -7.5,397.8 -11.4,397 		"/>
	</g>
	<text id="XMLID_290_" transform="matrix(0.8717 0 0 1 19.3486 399.147)" class="st5"><tspan x="0" y="0" class="st1 st6 st3">15</tspan><tspan x="4.6" y="0" class="st1 st2 st3">栋</tspan></text>
	<text id="XMLID_289_" transform="matrix(0.8717 0 0 1 9.4048 404.4731)" class="st7 st6 st3">103</text>
	<text id="XMLID_288_" transform="matrix(0.8717 0 0 1 16.4301 404.4731)" class="st1 st2 st3">条表白</text>
</g>
<g id="XMLID_297_">
	<rect id="XMLID_306_" x="36.9" y="360.7" class="st4" width="45.6" height="15.4"/>
	<g id="XMLID_301_">
		<rect id="XMLID_305_" x="40.7" y="363.7" class="st1" width="7.1" height="0.7"/>
		<rect id="XMLID_304_" x="40.7" y="365.1" class="st1" width="7.1" height="0.7"/>
		<polygon id="XMLID_303_" class="st1" points="48.9,372.4 45,373.2 43.9,365.9 47.8,365.1 		"/>
		<polygon id="XMLID_302_" class="st1" points="39.5,372.4 43.4,373.2 44.6,365.9 40.7,365.1 		"/>
	</g>
	<text id="XMLID_300_" transform="matrix(0.8717 0 0 1 71.3691 367.2817)" class="st5"><tspan x="0" y="0" class="st1 st6 st3">19</tspan><tspan x="4.6" y="0" class="st1 st2 st3">栋</tspan></text>
	<text id="XMLID_299_" transform="matrix(0.8717 0 0 1 61.4258 372.6074)" class="st7 st6 st3">103</text>
	<text id="XMLID_298_" transform="matrix(0.8717 0 0 1 68.4512 372.6074)" class="st1 st2 st3">条表白</text>
</g>
<g id="XMLID_38_">
	<rect id="XMLID_47_" x="-283.2" y="242.4" class="st4" width="45.6" height="15.4"/>
	<g id="XMLID_42_">
		<rect id="XMLID_46_" x="-279.4" y="245.4" class="st1" width="7.1" height="0.7"/>
		<rect id="XMLID_45_" x="-279.4" y="246.8" class="st1" width="7.1" height="0.7"/>
		<polygon id="XMLID_44_" class="st1" points="-271.2,254.1 -275.1,254.9 -276.2,247.6 -272.3,246.8 		"/>
		<polygon id="XMLID_43_" class="st1" points="-280.5,254.1 -276.7,254.9 -275.5,247.6 -279.4,246.8 		"/>
	</g>
	<text id="XMLID_41_" transform="matrix(0.8717 0 0 1 -248.7246 248.9995)" class="st5"><tspan x="0" y="0" class="st1 st6 st3">12</tspan><tspan x="4.6" y="0" class="st1 st2 st3">栋</tspan></text>
	<text id="XMLID_40_" transform="matrix(0.8717 0 0 1 -258.6685 254.3252)" class="st7 st6 st3">103</text>
	<text id="XMLID_39_" transform="matrix(0.8717 0 0 1 -251.6436 254.3252)" class="st1 st2 st3">条表白</text>
</g>
<g id="XMLID_104_">
	<rect id="XMLID_113_" x="-265.6" y="221.2" class="st4" width="45.6" height="15.4"/>
	<g id="XMLID_108_">
		<rect id="XMLID_112_" x="-261.8" y="224.1" class="st1" width="7.1" height="0.7"/>
		<rect id="XMLID_111_" x="-261.8" y="225.6" class="st1" width="7.1" height="0.7"/>
		<polygon id="XMLID_110_" class="st1" points="-253.6,232.9 -257.5,233.6 -258.6,226.4 -254.7,225.6 		"/>
		<polygon id="XMLID_109_" class="st1" points="-263,232.9 -259.1,233.6 -257.9,226.4 -261.8,225.6 		"/>
	</g>
	<text id="XMLID_107_" transform="matrix(0.8717 0 0 1 -231.5585 227.7402)" class="st5"><tspan x="0" y="0" class="st1 st6 st3">27</tspan><tspan x="4.6" y="0" class="st1 st2 st3">栋</tspan></text>
	<text id="XMLID_106_" transform="matrix(0.8717 0 0 1 -241.0762 233.0659)" class="st7 st6 st3">103</text>
	<text id="XMLID_105_" transform="matrix(0.8717 0 0 1 -234.0512 233.0659)" class="st1 st2 st3">条表白</text>
</g>
<g id="XMLID_114_">
	<rect id="XMLID_123_" x="-202.3" y="221.9" class="st4" width="45.6" height="15.4"/>
	<g id="XMLID_118_">
		<rect id="XMLID_122_" x="-198.5" y="224.8" class="st1" width="7.1" height="0.7"/>
		<rect id="XMLID_121_" x="-198.5" y="226.3" class="st1" width="7.1" height="0.7"/>
		<polygon id="XMLID_120_" class="st1" points="-190.3,233.6 -194.2,234.4 -195.3,227.1 -191.4,226.3 		"/>
		<polygon id="XMLID_119_" class="st1" points="-199.7,233.6 -195.8,234.4 -194.7,227.1 -198.6,226.3 		"/>
	</g>
	<text id="XMLID_117_" transform="matrix(0.8717 0 0 1 -167.9922 228.4683)" class="st5"><tspan x="0" y="0" class="st1 st6 st3">26</tspan><tspan x="4.6" y="0" class="st1 st2 st3">栋</tspan></text>
	<text id="XMLID_116_" transform="matrix(0.8717 0 0 1 -177.7935 233.7939)" class="st7 st6 st3">103</text>
	<text id="XMLID_115_" transform="matrix(0.8717 0 0 1 -170.7686 233.7939)" class="st1 st2 st3">条表白</text>
</g>
<g id="XMLID_178_">
	<rect id="XMLID_187_" x="-134.6" y="234.7" class="st4" width="45.6" height="15.4"/>
	<g id="XMLID_182_">
		<rect id="XMLID_186_" x="-130.9" y="237.7" class="st1" width="7.1" height="0.7"/>
		<rect id="XMLID_185_" x="-130.9" y="239.1" class="st1" width="7.1" height="0.7"/>
		<polygon id="XMLID_184_" class="st1" points="-122.6,246.4 -126.5,247.2 -127.6,239.9 -123.8,239.1 		"/>
		<polygon id="XMLID_183_" class="st1" points="-132,246.4 -128.1,247.2 -127,239.9 -130.9,239.1 		"/>
	</g>
	<text id="XMLID_181_" transform="matrix(0.8717 0 0 1 -100.6025 241.3032)" class="st5"><tspan x="0" y="0" class="st1 st6 st3">25</tspan><tspan x="4.6" y="0" class="st1 st2 st3">栋</tspan></text>
	<text id="XMLID_180_" transform="matrix(0.8717 0 0 1 -110.1191 246.6289)" class="st7 st6 st3">103</text>
	<text id="XMLID_179_" transform="matrix(0.8717 0 0 1 -103.0937 246.6289)" class="st1 st2 st3">条表白</text>
</g>
<g id="XMLID_188_">
	<rect id="XMLID_197_" x="-122.4" y="256.3" class="st4" width="45.6" height="15.4"/>
	<g id="XMLID_192_">
		<rect id="XMLID_196_" x="-118.6" y="259.2" class="st1" width="7.1" height="0.7"/>
		<rect id="XMLID_195_" x="-118.6" y="260.7" class="st1" width="7.1" height="0.7"/>
		<polygon id="XMLID_194_" class="st1" points="-110.4,268 -114.3,268.8 -115.4,261.5 -111.5,260.7 		"/>
		<polygon id="XMLID_193_" class="st1" points="-119.8,268 -115.9,268.8 -114.8,261.5 -118.7,260.7 		"/>
	</g>
	<text id="XMLID_191_" transform="matrix(0.8717 0 0 1 -88.3828 262.8687)" class="st5"><tspan x="0" y="0" class="st1 st6 st3">23</tspan><tspan x="4.6" y="0" class="st1 st2 st3">栋</tspan></text>
	<text id="XMLID_190_" transform="matrix(0.8717 0 0 1 -97.9004 268.1943)" class="st7 st6 st3">103</text>
	<text id="XMLID_189_" transform="matrix(0.8717 0 0 1 -90.875 268.1943)" class="st1 st2 st3">条表白</text>
</g>
<g id="XMLID_546_">
	<rect id="XMLID_207_" x="-94.2" y="295.2" class="st0" width="45.6" height="15.4"/>
	<text id="XMLID_199_" transform="matrix(0.8717 0 0 1 -77.8359 304.4712)" class="st1 st2 st3">韵二超市</text>
</g>
<g id="XMLID_37_">
	<rect id="XMLID_77_" x="-242.8" y="275.5" class="st8" width="45.6" height="15.4"/>
	<text id="XMLID_71_" transform="matrix(0.8717 0 0 1 -208.3477 282.0972)" class="st5"><tspan x="0" y="0" class="st1 st6 st3">10</tspan><tspan x="4.6" y="0" class="st1 st2 st3">栋</tspan></text>
	<text id="XMLID_70_" transform="matrix(0.8717 0 0 1 -218.2915 287.4233)" class="st9 st6 st3">103</text>
	<text id="XMLID_69_" transform="matrix(0.8717 0 0 1 -211.2661 287.4233)" class="st1 st2 st3">条表白</text>
	<g id="XMLID_68_">
		<ellipse id="XMLID_78_" class="st1" cx="-238.7" cy="282.9" rx="1.7" ry="1.9"/>
		<ellipse id="XMLID_76_" class="st1" cx="-234.7" cy="282.9" rx="1.7" ry="1.9"/>
		<path id="XMLID_75_" class="st1" d="M-234.1,283l-1.9-4.5c-0.3-0.7-1.1-0.7-1.4,0l-1.9,4.5v-0.7l1.9-4.4c0.3-0.7,1.1-0.7,1.4,0
			l1.9,4.4V283z"/>
		<rect id="XMLID_74_" x="-237.4" y="282.6" class="st1" width="1.5" height="0.7"/>
		<rect id="XMLID_73_" x="-239.2" y="286.5" class="st1" width="5.3" height="0.6"/>
		<polygon id="XMLID_72_" class="st1" points="-236,288.7 -237.5,288.7 -238.4,287 -235.1,287 		"/>
	</g>
</g>
<g id="XMLID_80_">
	<rect id="XMLID_91_" x="-192.7" y="275.5" class="st8" width="45.6" height="15.4"/>
	<text id="XMLID_90_" transform="matrix(0.8717 0 0 1 -157.2939 282.0972)" class="st5"><tspan x="0" y="0" class="st1 st6 st3">11</tspan><tspan x="4.6" y="0" class="st1 st2 st3">栋</tspan></text>
	<text id="XMLID_89_" transform="matrix(0.8717 0 0 1 -168.23 287.4233)" class="st9 st6 st3">103</text>
	<text id="XMLID_88_" transform="matrix(0.8717 0 0 1 -161.2051 287.4233)" class="st1 st2 st3">条表白</text>
	<g id="XMLID_81_">
		<ellipse id="XMLID_87_" class="st1" cx="-188.6" cy="282.9" rx="1.7" ry="1.9"/>
		<ellipse id="XMLID_86_" class="st1" cx="-184.6" cy="282.9" rx="1.7" ry="1.9"/>
		<path id="XMLID_85_" class="st1" d="M-184.1,283l-1.9-4.4c-0.3-0.7-1.1-0.7-1.4,0l-1.9,4.4v-0.7l1.9-4.4c0.3-0.7,1.1-0.7,1.4,0
			l1.9,4.4V283z"/>
		<rect id="XMLID_84_" x="-187.4" y="282.6" class="st1" width="1.5" height="0.7"/>
		<rect id="XMLID_83_" x="-189.2" y="286.5" class="st1" width="5.3" height="0.6"/>
		<polygon id="XMLID_82_" class="st1" points="-185.9,288.7 -187.4,288.7 -188.3,287 -185,287 		"/>
	</g>
</g>
<g id="XMLID_134_">
	<rect id="XMLID_145_" x="-193.2" y="333.2" class="st8" width="45.6" height="15.4"/>
	<text id="XMLID_144_" transform="matrix(0.8717 0 0 1 -159.0557 339.7627)" class="st5"><tspan x="0" y="0" class="st1 st6 st3">20</tspan><tspan x="4.6" y="0" class="st1 st2 st3">栋</tspan></text>
	<text id="XMLID_143_" transform="matrix(0.8717 0 0 1 -168.7149 345.0889)" class="st9 st6 st3">103</text>
	<text id="XMLID_142_" transform="matrix(0.8717 0 0 1 -161.6904 345.0889)" class="st1 st2 st3">条表白</text>
	<g id="XMLID_135_">
		<ellipse id="XMLID_141_" class="st1" cx="-189.1" cy="340.6" rx="1.7" ry="1.9"/>
		<ellipse id="XMLID_140_" class="st1" cx="-185.1" cy="340.6" rx="1.7" ry="1.9"/>
		<path id="XMLID_139_" class="st1" d="M-184.6,340.6l-1.9-4.4c-0.3-0.7-1.1-0.7-1.4,0l-1.9,4.4v-0.7l1.9-4.4c0.3-0.7,1.1-0.7,1.4,0
			l1.9,4.4V340.6z"/>
		<rect id="XMLID_138_" x="-187.9" y="340.3" class="st1" width="1.5" height="0.7"/>
		<rect id="XMLID_137_" x="-189.7" y="344.1" class="st1" width="5.3" height="0.6"/>
		<polygon id="XMLID_136_" class="st1" points="-186.4,346.4 -187.9,346.4 -188.8,344.7 -185.5,344.7 		"/>
	</g>
</g>
<g id="XMLID_208_">
	<rect id="XMLID_219_" x="-119.8" y="360.7" class="st8" width="45.6" height="15.4"/>
	<text id="XMLID_218_" transform="matrix(0.8717 0 0 1 -85.3545 367.2261)" class="st5"><tspan x="0" y="0" class="st1 st6 st3">17</tspan><tspan x="4.6" y="0" class="st1 st2 st3">栋</tspan></text>
	<text id="XMLID_217_" transform="matrix(0.8717 0 0 1 -95.2988 372.5522)" class="st9 st6 st3">103</text>
	<text id="XMLID_216_" transform="matrix(0.8717 0 0 1 -88.2734 372.5522)" class="st1 st2 st3">条表白</text>
	<g id="XMLID_209_">
		<ellipse id="XMLID_215_" class="st1" cx="-115.7" cy="368.1" rx="1.7" ry="1.9"/>
		<ellipse id="XMLID_214_" class="st1" cx="-111.7" cy="368.1" rx="1.7" ry="1.9"/>
		<path id="XMLID_213_" class="st1" d="M-111.1,368.1l-1.9-4.4c-0.3-0.7-1.1-0.7-1.4,0l-1.9,4.4v-0.7l1.9-4.4c0.3-0.7,1.1-0.7,1.4,0
			l1.9,4.4V368.1z"/>
		<rect id="XMLID_212_" x="-114.4" y="367.8" class="st1" width="1.5" height="0.7"/>
		<rect id="XMLID_211_" x="-116.2" y="371.6" class="st1" width="5.3" height="0.6"/>
		<polygon id="XMLID_210_" class="st1" points="-113,373.8 -114.5,373.8 -115.4,372.2 -112.1,372.2 		"/>
	</g>
</g>
<g id="XMLID_146_">
	<rect id="XMLID_157_" x="-242.9" y="360.7" class="st8" width="45.6" height="46.6"/>
	<text id="XMLID_156_" transform="matrix(0.8717 0 0 1 -206.3613 381.5708)" class="st5"><tspan x="0" y="0" class="st1 st6 st3">6</tspan><tspan x="2.3" y="0" class="st1 st2 st3">栋</tspan></text>
	<text id="XMLID_155_" transform="matrix(0.8717 0 0 1 -218.2915 386.8965)" class="st9 st6 st3">103</text>
	<text id="XMLID_154_" transform="matrix(0.8717 0 0 1 -211.2661 386.8965)" class="st1 st2 st3">条表白</text>
	<g id="XMLID_147_">
		<ellipse id="XMLID_153_" class="st1" cx="-238.4" cy="383.9" rx="1.7" ry="1.9"/>
		<ellipse id="XMLID_152_" class="st1" cx="-234.4" cy="383.9" rx="1.7" ry="1.9"/>
		<path id="XMLID_151_" class="st1" d="M-233.9,383.9l-1.9-4.4c-0.3-0.7-1.1-0.7-1.4,0l-1.9,4.4v-0.7l1.9-4.4c0.3-0.7,1.1-0.7,1.4,0
			l1.9,4.4V383.9z"/>
		<rect id="XMLID_150_" x="-237.2" y="383.6" class="st1" width="1.5" height="0.7"/>
		<rect id="XMLID_149_" x="-239" y="387.4" class="st1" width="5.3" height="0.6"/>
		<polygon id="XMLID_148_" class="st1" points="-235.7,389.6 -237.3,389.6 -238.1,388 -234.8,388 		"/>
	</g>
</g>
<g id="XMLID_233_">
	<rect id="XMLID_244_" x="-243.3" y="463.2" class="st8" width="45.6" height="15.4"/>
	<text id="XMLID_243_" transform="matrix(0.8717 0 0 1 -206.9873 469.7637)" class="st5"><tspan x="0" y="0" class="st1 st6 st3">4</tspan><tspan x="2.3" y="0" class="st1 st2 st3">栋</tspan></text>
	<text id="XMLID_242_" transform="matrix(0.8717 0 0 1 -218.7763 475.0898)" class="st9 st6 st3">103</text>
	<text id="XMLID_241_" transform="matrix(0.8717 0 0 1 -211.751 475.0898)" class="st1 st2 st3">条表白</text>
	<g id="XMLID_234_">
		<ellipse id="XMLID_240_" class="st1" cx="-239.1" cy="470.6" rx="1.7" ry="1.9"/>
		<ellipse id="XMLID_239_" class="st1" cx="-235.2" cy="470.6" rx="1.7" ry="1.9"/>
		<path id="XMLID_238_" class="st1" d="M-234.6,470.6l-1.9-4.4c-0.3-0.7-1.1-0.7-1.4,0l-1.9,4.4v-0.7l1.9-4.4c0.3-0.7,1.1-0.7,1.4,0
			l1.9,4.4V470.6z"/>
		<rect id="XMLID_237_" x="-237.9" y="470.3" class="st1" width="1.5" height="0.7"/>
		<rect id="XMLID_236_" x="-239.7" y="474.1" class="st1" width="5.3" height="0.6"/>
		<polygon id="XMLID_235_" class="st1" points="-236.4,476.4 -238,476.4 -238.8,474.7 -235.6,474.7 		"/>
	</g>
</g>
<g id="XMLID_267_">
	<rect id="XMLID_276_" x="-243.3" y="525.2" class="st4" width="45.6" height="15.4"/>
	<g id="XMLID_271_">
		<rect id="XMLID_275_" x="-239.5" y="528.1" class="st1" width="7.1" height="0.7"/>
		<rect id="XMLID_274_" x="-239.5" y="529.6" class="st1" width="7.1" height="0.7"/>
		<polygon id="XMLID_273_" class="st1" points="-231.3,536.8 -235.2,537.6 -236.3,530.3 -232.4,529.6 		"/>
		<polygon id="XMLID_272_" class="st1" points="-240.7,536.8 -236.8,537.6 -235.6,530.3 -239.5,529.6 		"/>
	</g>
	<text id="XMLID_270_" transform="matrix(0.8717 0 0 1 -206.5615 531.7168)" class="st5"><tspan x="0" y="0" class="st1 st6 st3">1</tspan><tspan x="2.3" y="0" class="st1 st2 st3">栋</tspan></text>
	<text id="XMLID_269_" transform="matrix(0.8717 0 0 1 -218.7763 537.043)" class="st7 st6 st3">103</text>
	<text id="XMLID_268_" transform="matrix(0.8717 0 0 1 -211.751 537.043)" class="st1 st2 st3">条表白</text>
</g>
<g id="XMLID_255_">
	<rect id="XMLID_266_" x="-243.3" y="504.5" class="st8" width="45.6" height="15.4"/>
	<text id="XMLID_265_" transform="matrix(0.8717 0 0 1 -206.8457 511.0654)" class="st5"><tspan x="0" y="0" class="st1 st6 st3">2</tspan><tspan x="2.3" y="0" class="st1 st2 st3">栋</tspan></text>
	<text id="XMLID_264_" transform="matrix(0.8717 0 0 1 -218.7763 516.3916)" class="st9 st6 st3">103</text>
	<text id="XMLID_263_" transform="matrix(0.8717 0 0 1 -211.751 516.3916)" class="st1 st2 st3">条表白</text>
	<g id="XMLID_256_">
		<ellipse id="XMLID_262_" class="st1" cx="-239.1" cy="511.9" rx="1.7" ry="1.9"/>
		<ellipse id="XMLID_261_" class="st1" cx="-235.2" cy="511.9" rx="1.7" ry="1.9"/>
		<path id="XMLID_260_" class="st1" d="M-234.6,511.9l-1.9-4.4c-0.3-0.7-1.1-0.7-1.4,0l-1.9,4.4v-0.7l1.9-4.4c0.3-0.7,1.1-0.7,1.4,0
			l1.9,4.4V511.9z"/>
		<rect id="XMLID_259_" x="-237.9" y="511.6" class="st1" width="1.5" height="0.7"/>
		<rect id="XMLID_258_" x="-239.7" y="515.4" class="st1" width="5.3" height="0.6"/>
		<polygon id="XMLID_257_" class="st1" points="-236.4,517.7 -238,517.7 -238.8,516 -235.6,516 		"/>
	</g>
</g>
<g id="XMLID_92_">
	<rect id="XMLID_103_" x="-192.7" y="254.7" class="st8" width="45.6" height="15.4"/>
	<text id="XMLID_102_" transform="matrix(0.8717 0 0 1 -158.4287 261.2422)" class="st5"><tspan x="0" y="0" class="st1 st6 st3">24</tspan><tspan x="4.6" y="0" class="st1 st2 st3">栋</tspan></text>
	<text id="XMLID_101_" transform="matrix(0.8717 0 0 1 -168.23 266.5684)" class="st9 st6 st3">103</text>
	<text id="XMLID_100_" transform="matrix(0.8717 0 0 1 -161.2051 266.5684)" class="st1 st2 st3">条表白</text>
	<g id="XMLID_93_">
		<ellipse id="XMLID_99_" class="st1" cx="-188.6" cy="262.1" rx="1.7" ry="1.9"/>
		<ellipse id="XMLID_98_" class="st1" cx="-184.6" cy="262.1" rx="1.7" ry="1.9"/>
		<path id="XMLID_97_" class="st1" d="M-184.1,262.1l-1.9-4.4c-0.3-0.7-1.1-0.7-1.4,0l-1.9,4.4v-0.7l1.9-4.4c0.3-0.7,1.1-0.7,1.4,0
			l1.9,4.4V262.1z"/>
		<rect id="XMLID_96_" x="-187.4" y="261.8" class="st1" width="1.5" height="0.7"/>
		<rect id="XMLID_95_" x="-189.2" y="265.6" class="st1" width="5.3" height="0.6"/>
		<polygon id="XMLID_94_" class="st1" points="-185.9,267.8 -187.4,267.8 -188.3,266.2 -185,266.2 		"/>
	</g>
</g>
<g id="XMLID_198_">
	<rect id="XMLID_318_" x="-251.6" y="267.5" class="st10" width="5.2" height="146.3"/>
	<rect id="XMLID_321_" x="-130.1" y="318.3" class="st10" width="5.2" height="95.4"/>
	<polygon id="XMLID_323_" class="st10" points="-127.2,317.6 -65.7,360.7 -67.6,360.7 -67.6,365.7 -130.2,321.9 	"/>
	
		<rect id="XMLID_322_" x="-173.6" y="279" transform="matrix(0.2067 0.9784 -0.9784 0.2067 168.1953 355.8565)" class="st10" width="76.6" height="5.2"/>
	<rect id="XMLID_320_" x="-204.9" y="243.5" class="st10" width="5.2" height="29.2"/>
	<rect id="XMLID_319_" x="-263.1" y="413.7" class="st10" width="5.2" height="136.6"/>
	<rect id="XMLID_308_" x="-310.4" y="352.1" class="st10" width="183.7" height="5.2"/>
	<rect id="XMLID_311_" x="-310.4" y="411.1" class="st10" width="400" height="5.2"/>
	<rect id="XMLID_309_" x="-246.5" y="324.2" class="st10" width="119.8" height="5.2"/>
	<rect id="XMLID_310_" x="-246.5" y="295.1" class="st10" width="113.2" height="5.2"/>
	<rect id="XMLID_316_" x="-258.9" y="452.8" class="st10" width="78.1" height="5.2"/>
	<rect id="XMLID_314_" x="-127.3" y="381.4" class="st10" width="59.7" height="5.2"/>
	<rect id="XMLID_315_" x="-22" y="381.4" class="st10" width="111.6" height="5.2"/>
	<rect id="XMLID_312_" x="-246.5" y="267.5" class="st10" width="46.8" height="5.2"/>
	<rect id="XMLID_313_" x="-204.9" y="243.5" class="st10" width="64.3" height="5.2"/>
</g>
<g id="XMLID_1_">
	<rect id="XMLID_10_" x="-109.4" y="275.3" class="st4" width="45.6" height="15.4"/>
	<g id="XMLID_5_">
		<rect id="XMLID_9_" x="-105.6" y="278.2" class="st1" width="7.1" height="0.7"/>
		<rect id="XMLID_8_" x="-105.6" y="279.7" class="st1" width="7.1" height="0.7"/>
		<polygon id="XMLID_7_" class="st1" points="-97.4,287 -101.3,287.8 -102.4,280.5 -98.5,279.7 		"/>
		<polygon id="XMLID_6_" class="st1" points="-106.8,287 -102.9,287.8 -101.8,280.5 -105.7,279.7 		"/>
	</g>
	<text id="XMLID_4_" transform="matrix(0.8717 0 0 1 -75.3828 281.8687)" class="st5"><tspan x="0" y="0" class="st1 st6 st3">22</tspan><tspan x="4.6" y="0" class="st1 st2 st3">栋</tspan></text>
	<text id="XMLID_3_" transform="matrix(0.8717 0 0 1 -84.9004 287.1943)" class="st7 st6 st3">103</text>
	<text id="XMLID_2_" transform="matrix(0.8717 0 0 1 -77.875 287.1943)" class="st1 st2 st3">条表白</text>
</g>
</svg>
